<svg width="11" height="11" viewBox="0 0 11 11" fill="none" xmlns="http://www.w3.org/2000/svg">
<path d="M10.0833 0H6.27333C6.02129 0 5.66903 0.146012 5.49096 0.323955L0.267499 5.54739C-0.0891662 5.90365 -0.0891662 6.48775 0.267499 6.84358L4.15679 10.7327C4.51265 11.089 5.09618 11.089 5.45258 10.7323L10.676 5.50971C10.854 5.33179 11 4.97897 11 4.72747V0.916705C11 0.412631 10.5873 0 10.0833 0ZM8.24985 3.66669C7.74358 3.66669 7.33315 3.25583 7.33315 2.74998C7.33315 2.2433 7.74358 1.83328 8.24985 1.83328C8.75613 1.83328 9.16669 2.2433 9.16669 2.74998C9.16672 3.25583 8.75613 3.66669 8.24985 3.66669Z" fill="#DE2128"/>
</svg>
