<svg width="13" height="17" viewBox="0 0 13 17" fill="none" xmlns="http://www.w3.org/2000/svg">
<path d="M10.2803 9.63736C10.2022 9.71546 10.2022 9.8421 10.2803 9.9202L11.3471 10.987C11.4252 11.0651 11.5518 11.0651 11.6299 10.987L12.2946 10.3223C12.5686 10.0482 12.5686 9.60228 12.2946 9.32826L11.939 8.97265C11.665 8.69859 11.219 8.69859 10.945 8.97265L10.2803 9.63736ZM6.19944 14.0009C6.12134 13.9228 6.12135 13.7962 6.19945 13.7181L9.35706 10.5605C9.43516 10.4824 9.56179 10.4824 9.6399 10.5604L10.7067 11.6272C10.7848 11.7053 10.7848 11.8319 10.7067 11.91L7.54897 15.0677C7.47086 15.1458 7.34422 15.1458 7.26612 15.0677L6.19944 14.0009ZM6.74292 15.8692C6.7468 15.8684 6.75036 15.8665 6.75316 15.8637V15.8637C6.76107 15.8557 6.76107 15.8429 6.75315 15.835L5.43219 14.514C5.42428 14.5061 5.41146 14.5061 5.40358 14.514V14.514C5.40081 14.5168 5.39891 14.5203 5.39811 14.5242L5.10743 15.9234C5.07814 16.0644 5.20295 16.1892 5.34394 16.1599L6.74292 15.8692ZM8.05801 1.1383C7.93202 1.01231 7.71659 1.10154 7.71659 1.27972V4.06402C7.71659 4.17448 7.80614 4.26402 7.91659 4.26402H10.7009C10.8791 4.26402 10.9683 4.0486 10.8423 3.9226L8.05801 1.1383ZM9.30699 14.5904C9.181 14.7164 9.27023 14.9318 9.44841 14.9318H11.0178C11.1282 14.9318 11.2178 14.8423 11.2178 14.7318V13.1624C11.2178 12.9842 11.0023 12.8949 10.8764 13.0209L9.30699 14.5904Z" fill="#DE2128"/>
<path d="M4.54348 14.1876C4.55934 14.1113 4.59716 14.0413 4.65228 13.9861L6.50945 12.129C6.76144 11.8771 6.58298 11.4462 6.22661 11.4462H3.88585C3.66494 11.4462 3.48585 11.2671 3.48585 11.0462V10.9408C3.48585 10.7199 3.66494 10.5408 3.88585 10.5408H7.93204C8.03813 10.5408 8.13987 10.4987 8.21489 10.4237L10.3048 8.33378C10.4734 8.16509 10.6706 8.04182 10.8809 7.96391C11.068 7.89459 11.2177 7.73065 11.2177 7.53112V5.57068C11.2177 5.34977 11.0386 5.17068 10.8177 5.17068H7.21111C6.9902 5.17068 6.81111 4.99159 6.81111 4.77068V1.17344C6.81111 0.952523 6.63203 0.773438 6.41111 0.773438H0.9C0.679086 0.773438 0.5 0.952524 0.5 1.17344V14.5331C0.5 14.754 0.679086 14.9331 0.9 14.9331H4.06317C4.25272 14.9331 4.41625 14.8001 4.4548 14.6145L4.54348 14.1876ZM3.48583 7.47409C3.48583 7.25318 3.66491 7.07408 3.88583 7.07408H7.83195C8.05286 7.07408 8.23195 7.25317 8.23195 7.47408V7.57946C8.23195 7.80038 8.05287 7.97946 7.83195 7.97946H3.88584C3.66493 7.97946 3.48584 7.80038 3.48584 7.57948L3.48583 7.47409ZM3.48583 9.2074C3.48583 8.98648 3.66491 8.80738 3.88583 8.80738H7.83195C8.05286 8.80738 8.23195 8.98647 8.23195 9.20738V9.31277C8.23195 9.53368 8.05287 9.71277 7.83195 9.71277H3.88584C3.66493 9.71277 3.48584 9.53369 3.48584 9.31278L3.48583 9.2074Z" fill="#DE2128"/>
</svg>
