<svg width="28" height="28" viewBox="0 0 28 28" fill="none" xmlns="http://www.w3.org/2000/svg">
<circle cx="14" cy="14" r="14" fill="#EBEBEB"/>
<g clip-path="url(#clip0_1794_16625)">
<path d="M8.58556 7.99992C8.46966 7.9999 8.35635 8.03426 8.25997 8.09864C8.1636 8.16302 8.08848 8.25454 8.04412 8.36162C7.99976 8.4687 7.98816 8.58653 8.01078 8.7002C8.03339 8.81388 8.08922 8.91829 8.17118 9.00024L18.9993 19.8284C19.1092 19.9383 19.2583 20 19.4137 20C19.5691 20 19.7182 19.9383 19.8281 19.8284C19.938 19.7185 19.9997 19.5694 19.9997 19.414C19.9997 19.2586 19.938 19.1095 19.8281 18.9996L8.99993 8.17149C8.94557 8.11701 8.88097 8.07381 8.80986 8.04436C8.73875 8.01492 8.66252 7.99982 8.58556 7.99992Z" fill="#35363A"/>
<path d="M19.4137 7.99992C19.3367 7.99982 19.2605 8.01492 19.1893 8.04436C19.1182 8.07381 19.0536 8.11701 18.9993 8.17149L8.17115 18.9996C8.06125 19.1095 7.99951 19.2586 7.99951 19.414C7.99951 19.5694 8.06125 19.7185 8.17115 19.8284C8.28105 19.9383 8.43011 20 8.58553 20C8.74095 20 8.89 19.9383 8.9999 19.8284L19.828 9.00024C19.91 8.91829 19.9658 8.81388 19.9884 8.7002C20.0111 8.58653 19.9994 8.4687 19.9551 8.36162C19.9107 8.25454 19.8356 8.16302 19.7392 8.09864C19.6429 8.03426 19.5296 7.9999 19.4137 7.99992Z" fill="#35363A"/>
</g>
<defs>
<clipPath id="clip0_1794_16625">
<rect width="12" height="12" fill="white" transform="matrix(1 0 0 -1 8 20)"/>
</clipPath>
</defs>
</svg>
