<svg width="136" height="8" viewBox="0 0 136 8" fill="none" xmlns="http://www.w3.org/2000/svg">
<path d="M0 3.5L4.97864 6.42344L5.02109 0.65009L0 3.5ZM136 4.5L131.021 1.57656L130.979 7.34991L136 4.5ZM0.996324 4.00734C1.27246 4.00937 1.49796 3.78716 1.49999 3.51103C1.50202 3.23489 1.27981 3.0094 1.00368 3.00737L0.996324 4.00734ZM3.00368 3.02207C2.72754 3.02004 2.50204 3.24225 2.50001 3.51838C2.49798 3.79452 2.72019 4.02001 2.99632 4.02205L3.00368 3.02207ZM4.99632 4.03675C5.27246 4.03878 5.49796 3.81658 5.49999 3.54044C5.50202 3.26431 5.27981 3.03881 5.00368 3.03678L4.99632 4.03675ZM7.00368 3.05148C6.72754 3.04945 6.50204 3.27166 6.50001 3.54779C6.49798 3.82393 6.72019 4.04943 6.99632 4.05146L7.00368 3.05148ZM8.99632 4.06616C9.27246 4.06819 9.49796 3.84599 9.49999 3.56985C9.50202 3.29372 9.27981 3.06822 9.00368 3.06619L8.99632 4.06616ZM11.0037 3.0809C10.7275 3.07887 10.502 3.30107 10.5 3.57721C10.498 3.85334 10.7202 4.07884 10.9963 4.08087L11.0037 3.0809ZM12.9963 4.09557C13.2725 4.09761 13.498 3.8754 13.5 3.59926C13.502 3.32313 13.2798 3.09763 13.0037 3.0956L12.9963 4.09557ZM15.0037 3.11031C14.7275 3.10828 14.502 3.33048 14.5 3.60662C14.498 3.88275 14.7202 4.10825 14.9963 4.11028L15.0037 3.11031ZM16.9963 4.12499C17.2725 4.12702 17.498 3.90481 17.5 3.62868C17.502 3.35254 17.2798 3.12704 17.0037 3.12501L16.9963 4.12499ZM19.0037 3.13972C18.7275 3.13769 18.502 3.35989 18.5 3.63603C18.498 3.91216 18.7202 4.13766 18.9963 4.13969L19.0037 3.13972ZM20.9963 4.1544C21.2725 4.15643 21.498 3.93422 21.5 3.65809C21.502 3.38195 21.2798 3.15646 21.0037 3.15443L20.9963 4.1544ZM23.0037 3.16913C22.7275 3.1671 22.502 3.38931 22.5 3.66544C22.498 3.94158 22.7202 4.16707 22.9963 4.1691L23.0037 3.16913ZM24.9963 4.18381C25.2725 4.18584 25.498 3.96363 25.5 3.6875C25.502 3.41136 25.2798 3.18587 25.0037 3.18384L24.9963 4.18381ZM27.0037 3.19854C26.7275 3.19651 26.502 3.41872 26.5 3.69485C26.498 3.97099 26.7202 4.19649 26.9963 4.19852L27.0037 3.19854ZM28.9963 4.21322C29.2725 4.21525 29.498 3.99305 29.5 3.71691C29.502 3.44078 29.2798 3.21528 29.0037 3.21325L28.9963 4.21322ZM31.0037 3.22795C30.7275 3.22592 30.502 3.44813 30.5 3.72426C30.498 4.0004 30.7202 4.2259 30.9963 4.22793L31.0037 3.22795ZM32.9963 4.24263C33.2725 4.24466 33.498 4.02246 33.5 3.74632C33.502 3.47019 33.2798 3.24469 33.0037 3.24266L32.9963 4.24263ZM35.0037 3.25737C34.7275 3.25534 34.502 3.47754 34.5 3.75368C34.498 4.02981 34.7202 4.25531 34.9963 4.25734L35.0037 3.25737ZM36.9963 4.27205C37.2725 4.27408 37.498 4.05187 37.5 3.77574C37.502 3.4996 37.2798 3.2741 37.0037 3.27207L36.9963 4.27205ZM39.0037 3.28678C38.7275 3.28475 38.502 3.50695 38.5 3.78309C38.498 4.05922 38.7202 4.28472 38.9963 4.28675L39.0037 3.28678ZM40.9963 4.30146C41.2725 4.30349 41.4979 4.08128 41.5 3.80515C41.502 3.52901 41.2798 3.30351 41.0037 3.30148L40.9963 4.30146ZM43.0037 3.31619C42.7275 3.31416 42.502 3.53637 42.5 3.8125C42.498 4.08863 42.7202 4.31413 42.9963 4.31616L43.0037 3.31619ZM44.9963 4.33087C45.2725 4.3329 45.4979 4.11069 45.5 3.83456C45.502 3.55842 45.2798 3.33293 45.0037 3.3309L44.9963 4.33087ZM47.0037 3.3456C46.7275 3.34357 46.502 3.56578 46.5 3.84191C46.498 4.11805 46.7202 4.34354 46.9963 4.34557L47.0037 3.3456ZM48.9963 4.36028C49.2724 4.36231 49.4979 4.14011 49.5 3.86397C49.502 3.58784 49.2798 3.36234 49.0037 3.36031L48.9963 4.36028ZM51.0037 3.37501C50.7275 3.37298 50.502 3.59519 50.5 3.87132C50.498 4.14746 50.7202 4.37296 50.9963 4.37499L51.0037 3.37501ZM52.9963 4.38969C53.2724 4.39172 53.4979 4.16952 53.5 3.89338C53.502 3.61725 53.2798 3.39175 53.0037 3.38972L52.9963 4.38969ZM55.0037 3.40443C54.7275 3.40239 54.502 3.6246 54.5 3.90074C54.498 4.17687 54.7202 4.40237 54.9963 4.4044L55.0037 3.40443ZM56.9963 4.4191C57.2724 4.42113 57.4979 4.19893 57.5 3.92279C57.502 3.64666 57.2798 3.42116 57.0037 3.41913L56.9963 4.4191ZM59.0037 3.43384C58.7275 3.43181 58.502 3.65401 58.5 3.93015C58.498 4.20628 58.7202 4.43178 58.9963 4.43381L59.0037 3.43384ZM60.9963 4.44852C61.2724 4.45055 61.4979 4.22834 61.5 3.95221C61.502 3.67607 61.2798 3.45057 61.0037 3.44854L60.9963 4.44852ZM63.0037 3.46325C62.7275 3.46122 62.502 3.68342 62.5 3.95956C62.498 4.23569 62.7202 4.46119 62.9963 4.46322L63.0037 3.46325ZM64.9963 4.47793C65.2724 4.47996 65.4979 4.25775 65.5 3.98162C65.502 3.70548 65.2798 3.47999 65.0037 3.47795L64.9963 4.47793ZM67.0037 3.49266C66.7275 3.49063 66.502 3.71284 66.5 3.98897C66.498 4.26511 66.7202 4.4906 66.9963 4.49263L67.0037 3.49266ZM68.9963 4.50734C69.2724 4.50937 69.4979 4.28716 69.5 4.01103C69.502 3.73489 69.2798 3.5094 69.0037 3.50737L68.9963 4.50734ZM71.0037 3.52207C70.7275 3.52004 70.502 3.74225 70.5 4.01838C70.498 4.29452 70.7202 4.52001 70.9963 4.52205L71.0037 3.52207ZM72.9963 4.53675C73.2724 4.53878 73.4979 4.31658 73.5 4.04044C73.502 3.76431 73.2798 3.53881 73.0037 3.53678L72.9963 4.53675ZM75.0037 3.55148C74.7275 3.54945 74.502 3.77166 74.5 4.04779C74.498 4.32393 74.7202 4.54943 74.9963 4.55146L75.0037 3.55148ZM76.9963 4.56616C77.2724 4.56819 77.4979 4.34599 77.5 4.06985C77.502 3.79372 77.2798 3.56822 77.0037 3.56619L76.9963 4.56616ZM79.0037 3.5809C78.7275 3.57887 78.502 3.80107 78.5 4.07721C78.498 4.35334 78.7202 4.57884 78.9963 4.58087L79.0037 3.5809ZM80.9963 4.59557C81.2724 4.59761 81.4979 4.3754 81.5 4.09926C81.502 3.82313 81.2798 3.59763 81.0037 3.5956L80.9963 4.59557ZM83.0037 3.61031C82.7275 3.60828 82.502 3.83048 82.5 4.10662C82.498 4.38275 82.7202 4.60825 82.9963 4.61028L83.0037 3.61031ZM84.9963 4.62499C85.2724 4.62702 85.4979 4.40481 85.5 4.12868C85.502 3.85254 85.2798 3.62704 85.0037 3.62501L84.9963 4.62499ZM87.0037 3.63972C86.7275 3.63769 86.502 3.85989 86.5 4.13603C86.498 4.41216 86.7202 4.63766 86.9963 4.63969L87.0037 3.63972ZM88.9963 4.6544C89.2724 4.65643 89.4979 4.43422 89.5 4.15809C89.502 3.88195 89.2798 3.65646 89.0037 3.65443L88.9963 4.6544ZM91.0037 3.66913C90.7275 3.6671 90.502 3.88931 90.5 4.16544C90.498 4.44158 90.7202 4.66707 90.9963 4.6691L91.0037 3.66913ZM92.9963 4.68381C93.2724 4.68584 93.4979 4.46363 93.5 4.1875C93.502 3.91136 93.2798 3.68587 93.0037 3.68384L92.9963 4.68381ZM95.0037 3.69854C94.7275 3.69651 94.502 3.91872 94.5 4.19485C94.498 4.47099 94.7202 4.69649 94.9963 4.69852L95.0037 3.69854ZM96.9963 4.71322C97.2724 4.71525 97.4979 4.49305 97.5 4.21691C97.502 3.94078 97.2798 3.71528 97.0037 3.71325L96.9963 4.71322ZM99.0037 3.72795C98.7275 3.72592 98.502 3.94813 98.5 4.22426C98.498 4.5004 98.7202 4.7259 98.9963 4.72793L99.0037 3.72795ZM100.996 4.74263C101.272 4.74466 101.498 4.52246 101.5 4.24632C101.502 3.97019 101.28 3.74469 101.004 3.74266L100.996 4.74263ZM103.004 3.75737C102.728 3.75534 102.502 3.97754 102.5 4.25368C102.498 4.52981 102.72 4.75531 102.996 4.75734L103.004 3.75737ZM104.996 4.77205C105.272 4.77408 105.498 4.55187 105.5 4.27574C105.502 3.9996 105.28 3.7741 105.004 3.77207L104.996 4.77205ZM107.004 3.78678C106.728 3.78475 106.502 4.00695 106.5 4.28309C106.498 4.55922 106.72 4.78472 106.996 4.78675L107.004 3.78678ZM108.996 4.80146C109.272 4.80349 109.498 4.58128 109.5 4.30515C109.502 4.02901 109.28 3.80351 109.004 3.80148L108.996 4.80146ZM111.004 3.81619C110.728 3.81416 110.502 4.03636 110.5 4.3125C110.498 4.58863 110.72 4.81413 110.996 4.81616L111.004 3.81619ZM112.996 4.83087C113.272 4.8329 113.498 4.61069 113.5 4.33456C113.502 4.05842 113.28 3.83293 113.004 3.8309L112.996 4.83087ZM115.004 3.8456C114.728 3.84357 114.502 4.06578 114.5 4.34191C114.498 4.61805 114.72 4.84354 114.996 4.84557L115.004 3.8456ZM116.996 4.86028C117.272 4.86231 117.498 4.64011 117.5 4.36397C117.502 4.08784 117.28 3.86234 117.004 3.86031L116.996 4.86028ZM119.004 3.87501C118.728 3.87298 118.502 4.09519 118.5 4.37132C118.498 4.64746 118.72 4.87296 118.996 4.87499L119.004 3.87501ZM120.996 4.88969C121.272 4.89172 121.498 4.66952 121.5 4.39338C121.502 4.11725 121.28 3.89175 121.004 3.88972L120.996 4.88969ZM123.004 3.90443C122.728 3.90239 122.502 4.1246 122.5 4.40074C122.498 4.67687 122.72 4.90237 122.996 4.9044L123.004 3.90443ZM124.996 4.9191C125.272 4.92113 125.498 4.69893 125.5 4.42279C125.502 4.14666 125.28 3.92116 125.004 3.91913L124.996 4.9191ZM127.004 3.93384C126.728 3.93181 126.502 4.15401 126.5 4.43015C126.498 4.70628 126.72 4.93178 126.996 4.93381L127.004 3.93384ZM128.996 4.94852C129.272 4.95055 129.498 4.72834 129.5 4.45221C129.502 4.17607 129.28 3.95057 129.004 3.94854L128.996 4.94852ZM131.004 3.96325C130.728 3.96122 130.502 4.18342 130.5 4.45956C130.498 4.73569 130.72 4.96119 130.996 4.96322L131.004 3.96325ZM132.996 4.97793C133.272 4.97996 133.498 4.75775 133.5 4.48162C133.502 4.20548 133.28 3.97999 133.004 3.97795L132.996 4.97793ZM135.004 3.99266C134.728 3.99063 134.502 4.21284 134.5 4.48897C134.498 4.76511 134.72 4.9906 134.996 4.99263L135.004 3.99266ZM2.99632 4.02205L4.99632 4.03675L5.00368 3.03678L3.00368 3.02207L2.99632 4.02205ZM6.99632 4.05146L8.99632 4.06616L9.00368 3.06619L7.00368 3.05148L6.99632 4.05146ZM10.9963 4.08087L12.9963 4.09557L13.0037 3.0956L11.0037 3.0809L10.9963 4.08087ZM14.9963 4.11028L16.9963 4.12499L17.0037 3.12501L15.0037 3.11031L14.9963 4.11028ZM18.9963 4.13969L20.9963 4.1544L21.0037 3.15443L19.0037 3.13972L18.9963 4.13969ZM22.9963 4.1691L24.9963 4.18381L25.0037 3.18384L23.0037 3.16913L22.9963 4.1691ZM26.9963 4.19852L28.9963 4.21322L29.0037 3.21325L27.0037 3.19854L26.9963 4.19852ZM30.9963 4.22793L32.9963 4.24263L33.0037 3.24266L31.0037 3.22795L30.9963 4.22793ZM34.9963 4.25734L36.9963 4.27205L37.0037 3.27207L35.0037 3.25737L34.9963 4.25734ZM38.9963 4.28675L40.9963 4.30146L41.0037 3.30148L39.0037 3.28678L38.9963 4.28675ZM42.9963 4.31616L44.9963 4.33087L45.0037 3.3309L43.0037 3.31619L42.9963 4.31616ZM46.9963 4.34557L48.9963 4.36028L49.0037 3.36031L47.0037 3.3456L46.9963 4.34557ZM50.9963 4.37499L52.9963 4.38969L53.0037 3.38972L51.0037 3.37501L50.9963 4.37499ZM54.9963 4.4044L56.9963 4.4191L57.0037 3.41913L55.0037 3.40443L54.9963 4.4044ZM58.9963 4.43381L60.9963 4.44852L61.0037 3.44854L59.0037 3.43384L58.9963 4.43381ZM62.9963 4.46322L64.9963 4.47793L65.0037 3.47795L63.0037 3.46325L62.9963 4.46322ZM66.9963 4.49263L68.9963 4.50734L69.0037 3.50737L67.0037 3.49266L66.9963 4.49263ZM70.9963 4.52205L72.9963 4.53675L73.0037 3.53678L71.0037 3.52207L70.9963 4.52205ZM74.9963 4.55146L76.9963 4.56616L77.0037 3.56619L75.0037 3.55148L74.9963 4.55146ZM78.9963 4.58087L80.9963 4.59557L81.0037 3.5956L79.0037 3.5809L78.9963 4.58087ZM82.9963 4.61028L84.9963 4.62499L85.0037 3.62501L83.0037 3.61031L82.9963 4.61028ZM86.9963 4.63969L88.9963 4.6544L89.0037 3.65443L87.0037 3.63972L86.9963 4.63969ZM90.9963 4.6691L92.9963 4.68381L93.0037 3.68384L91.0037 3.66913L90.9963 4.6691ZM94.9963 4.69852L96.9963 4.71322L97.0037 3.71325L95.0037 3.69854L94.9963 4.69852ZM98.9963 4.72793L100.996 4.74263L101.004 3.74266L99.0037 3.72795L98.9963 4.72793ZM102.996 4.75734L104.996 4.77205L105.004 3.77207L103.004 3.75737L102.996 4.75734ZM106.996 4.78675L108.996 4.80146L109.004 3.80148L107.004 3.78678L106.996 4.78675ZM110.996 4.81616L112.996 4.83087L113.004 3.8309L111.004 3.81619L110.996 4.81616ZM114.996 4.84557L116.996 4.86028L117.004 3.86031L115.004 3.8456L114.996 4.84557ZM118.996 4.87499L120.996 4.88969L121.004 3.88972L119.004 3.87501L118.996 4.87499ZM122.996 4.9044L124.996 4.9191L125.004 3.91913L123.004 3.90443L122.996 4.9044ZM126.996 4.93381L128.996 4.94852L129.004 3.94854L127.004 3.93384L126.996 4.93381ZM130.996 4.96322L132.996 4.97793L133.004 3.97795L131.004 3.96325L130.996 4.96322Z" fill="#35363A"/>
</svg>
