<svg width="12" height="15" viewBox="0 0 12 15" fill="none" xmlns="http://www.w3.org/2000/svg">
<path d="M10.8462 1.96334H8.30769V1.5018C8.30769 0.737091 7.68779 0.117188 6.92308 0.117188H5.07692C4.31221 0.117188 3.69231 0.737091 3.69231 1.5018V1.96334H1.15385C0.516606 1.96334 0 2.47995 0 3.11719V4.04026C0 4.29518 0.206625 4.5018 0.461538 4.5018H11.5385C11.7934 4.5018 12 4.29518 12 4.04026V3.11719C12 2.47995 11.4834 1.96334 10.8462 1.96334ZM4.61538 1.5018C4.61538 1.24738 4.8225 1.04026 5.07692 1.04026H6.92308C7.1775 1.04026 7.38462 1.24738 7.38462 1.5018V1.96334H4.61538V1.5018ZM0.875885 5.42488C0.856367 5.42488 0.837052 5.42884 0.81911 5.43653C0.801169 5.44421 0.784974 5.45546 0.771505 5.46958C0.758037 5.48371 0.747576 5.50042 0.740756 5.51871C0.733935 5.537 0.730898 5.55648 0.731827 5.57598L1.1126 13.5676C1.14779 14.3072 1.75529 14.8864 2.49548 14.8864H9.50452C10.2447 14.8864 10.8522 14.3072 10.8874 13.5676L11.2682 5.57598C11.2691 5.55648 11.2661 5.537 11.2592 5.51871C11.2524 5.50042 11.242 5.48371 11.2285 5.46958C11.215 5.45546 11.1988 5.44421 11.1809 5.43653C11.1629 5.42884 11.1436 5.42488 11.1241 5.42488H0.875885ZM7.84615 6.57873C7.84615 6.32373 8.05269 6.11719 8.30769 6.11719C8.56269 6.11719 8.76923 6.32373 8.76923 6.57873V12.5787C8.76923 12.8337 8.56269 13.0403 8.30769 13.0403C8.05269 13.0403 7.84615 12.8337 7.84615 12.5787V6.57873ZM5.53846 6.57873C5.53846 6.32373 5.745 6.11719 6 6.11719C6.255 6.11719 6.46154 6.32373 6.46154 6.57873V12.5787C6.46154 12.8337 6.255 13.0403 6 13.0403C5.745 13.0403 5.53846 12.8337 5.53846 12.5787V6.57873ZM3.23077 6.57873C3.23077 6.32373 3.43731 6.11719 3.69231 6.11719C3.94731 6.11719 4.15385 6.32373 4.15385 6.57873V12.5787C4.15385 12.8337 3.94731 13.0403 3.69231 13.0403C3.43731 13.0403 3.23077 12.8337 3.23077 12.5787V6.57873Z" fill="#DE2128"/>
</svg>
