<svg width="15" height="22" viewBox="0 0 15 22" fill="none" xmlns="http://www.w3.org/2000/svg">
<path d="M14.0677 3.84478L10.4852 0.262244L10.4847 0.261824C10.464 0.241144 10.4422 0.221487 10.4196 0.202922C10.4092 0.1944 10.3983 0.187011 10.3876 0.179034C10.3749 0.169504 10.3624 0.159638 10.3492 0.15078C10.3364 0.142258 10.3232 0.134869 10.3101 0.12706C10.2981 0.119881 10.2864 0.112366 10.274 0.105733C10.2607 0.0985959 10.247 0.0925504 10.2333 0.0861271C10.2204 0.0800396 10.2078 0.0736163 10.1946 0.0681166C10.1814 0.0626589 10.1678 0.0582087 10.1544 0.0534227C10.1403 0.0483428 10.1263 0.0429271 10.1119 0.0385609C10.0984 0.0344886 10.0848 0.0315078 10.0712 0.0281073C10.0565 0.0243708 10.0419 0.0202565 10.0269 0.0172758C10.0112 0.0141691 9.99529 0.0122798 9.97946 0.0100128C9.9664 0.00816556 9.95356 0.00564661 9.94029 0.00434516C9.8815 -0.00144839 9.82229 -0.00144839 9.7635 0.00434516C9.75028 0.00564661 9.73743 0.00812358 9.72433 0.0100128C9.70851 0.0122798 9.6926 0.0141271 9.67689 0.0172758C9.66186 0.0202565 9.64734 0.0243708 9.6326 0.0281073C9.619 0.0315078 9.60536 0.0344886 9.59192 0.0385609C9.57748 0.0429271 9.5635 0.0483428 9.54939 0.0534227C9.53596 0.0582507 9.52244 0.0626589 9.50922 0.0681166C9.49599 0.0735743 9.48335 0.0800396 9.47047 0.0861271C9.45686 0.0925504 9.44314 0.0985959 9.42979 0.105733C9.41744 0.112366 9.40573 0.119881 9.39372 0.12706C9.38062 0.134869 9.3674 0.142258 9.35464 0.15078C9.34137 0.159638 9.32894 0.169504 9.31618 0.179034C9.30552 0.187011 9.2946 0.1944 9.28423 0.202922C9.26156 0.221521 9.23977 0.241126 9.21907 0.261824L9.21861 0.262244L5.63612 3.84474C5.28636 4.19449 5.28636 4.76159 5.63612 5.11135C5.98588 5.46111 6.55298 5.46111 6.90273 5.11135L8.95631 3.05777V13.4343C8.95631 13.929 9.35728 14.33 9.85192 14.33C10.3466 14.33 10.7475 13.929 10.7475 13.4343V3.05782L12.8011 5.11139C13.1509 5.46115 13.718 5.46115 14.0677 5.11139C14.4174 4.76159 14.4174 4.19453 14.0677 3.84478ZM7.4273 16.3835L5.37373 18.4371V8.06058C5.37373 7.56594 4.97275 7.16497 4.47812 7.16497C3.98348 7.16497 3.5825 7.56594 3.5825 8.06058V18.4371L1.52893 16.3835C1.17917 16.0338 0.612073 16.0338 0.262317 16.3835C-0.0874391 16.7333 -0.0874391 17.3004 0.262317 17.6501L3.84481 21.2326L3.84531 21.2331C3.86601 21.2537 3.8878 21.2734 3.91043 21.292C3.9208 21.3005 3.93176 21.3079 3.94242 21.3159C3.95514 21.3254 3.96761 21.3353 3.98083 21.3441C3.9936 21.3527 4.00682 21.36 4.01992 21.3679C4.03193 21.375 4.04364 21.3826 4.05598 21.3891C4.06933 21.3963 4.08306 21.4023 4.0967 21.4087C4.10955 21.4148 4.12223 21.4213 4.13541 21.4267C4.14864 21.4322 4.16216 21.4366 4.17559 21.4414C4.18974 21.4465 4.20368 21.4519 4.21812 21.4563C4.23155 21.4603 4.2452 21.4633 4.2588 21.4667C4.27354 21.4705 4.2881 21.4746 4.30313 21.4776C4.31888 21.4807 4.33475 21.4825 4.35057 21.4848C4.36363 21.4866 4.37652 21.4891 4.38974 21.4904C4.44852 21.4962 4.50776 21.4962 4.56653 21.4904C4.57976 21.4891 4.5926 21.4867 4.6057 21.4848C4.62153 21.4825 4.63744 21.4807 4.65314 21.4775C4.66817 21.4745 4.6827 21.4704 4.69743 21.4667C4.71104 21.4633 4.72468 21.4603 4.73811 21.4562C4.75256 21.4519 4.76654 21.4464 4.78064 21.4414C4.79408 21.4365 4.80759 21.4321 4.82082 21.4267C4.834 21.4212 4.84664 21.4148 4.85949 21.4087C4.87313 21.4023 4.8869 21.3962 4.90025 21.3891C4.91255 21.3825 4.92426 21.375 4.93623 21.3678C4.94933 21.36 4.96259 21.3526 4.97536 21.3441C4.98858 21.3352 5.00101 21.3254 5.01369 21.3159C5.02439 21.3079 5.03535 21.3004 5.04576 21.2919C5.06822 21.2735 5.08984 21.254 5.11042 21.2335L5.11138 21.2326L8.69387 17.6501C9.04363 17.3003 9.04363 16.7332 8.69387 16.3835C8.34412 16.0337 7.7771 16.0338 7.4273 16.3835Z" fill="#DE2128"/>
</svg>
