<svg width="14" height="15" viewBox="0 0 14 15" fill="none" xmlns="http://www.w3.org/2000/svg">
<path d="M3.76923 3.19231C3.62642 3.19231 3.48946 3.13558 3.38848 3.0346C3.2875 2.93361 3.23077 2.79666 3.23077 2.65385V2.11538C3.23077 1.68696 3.40096 1.27608 3.7039 0.973135C4.00685 0.670192 4.41773 0.5 4.84615 0.5H5.38462C5.52742 0.5 5.66438 0.556731 5.76537 0.657712C5.86635 0.758693 5.92308 0.895653 5.92308 1.03846C5.92308 1.18127 5.86635 1.31823 5.76537 1.41921C5.66438 1.52019 5.52742 1.57692 5.38462 1.57692H4.84615C4.70335 1.57692 4.56639 1.63365 4.4654 1.73463C4.36442 1.83562 4.30769 1.97258 4.30769 2.11538V2.65385C4.30769 2.79666 4.25096 2.93361 4.14998 3.0346C4.049 3.13558 3.91204 3.19231 3.76923 3.19231ZM12.3846 11.2692H11.8462C11.7033 11.2692 11.5664 11.2125 11.4654 11.1115C11.3644 11.0105 11.3077 10.8736 11.3077 10.7308C11.3077 10.588 11.3644 10.451 11.4654 10.35C11.5664 10.249 11.7033 10.1923 11.8462 10.1923H12.3846C12.5274 10.1923 12.6644 10.1356 12.7654 10.0346C12.8663 9.93362 12.9231 9.79666 12.9231 9.65385V9.11539C12.9231 8.97258 12.9798 8.83562 13.0808 8.73463C13.1818 8.63365 13.3187 8.57692 13.4615 8.57692C13.6043 8.57692 13.7413 8.63365 13.8423 8.73463C13.9433 8.83562 14 8.97258 14 9.11539V9.65385C14 10.0823 13.8298 10.4932 13.5269 10.7961C13.2239 11.099 12.813 11.2692 12.3846 11.2692ZM13.4615 3.19231C13.3187 3.19231 13.1818 3.13558 13.0808 3.0346C12.9798 2.93361 12.9231 2.79666 12.9231 2.65385V2.11538C12.9231 1.97258 12.8663 1.83562 12.7654 1.73463C12.6644 1.63365 12.5274 1.57692 12.3846 1.57692H11.8462C11.7033 1.57692 11.5664 1.52019 11.4654 1.41921C11.3644 1.31823 11.3077 1.18127 11.3077 1.03846C11.3077 0.895653 11.3644 0.758693 11.4654 0.657712C11.5664 0.556731 11.7033 0.5 11.8462 0.5H12.3846C12.813 0.5 13.2239 0.670192 13.5269 0.973135C13.8298 1.27608 14 1.68696 14 2.11538V2.65385C14 2.79666 13.9433 2.93361 13.8423 3.0346C13.7413 3.13558 13.6043 3.19231 13.4615 3.19231ZM13.4615 7.5C13.3187 7.5 13.1818 7.44327 13.0808 7.34229C12.9798 7.24131 12.9231 7.10435 12.9231 6.96154V4.80769C12.9231 4.66488 12.9798 4.52792 13.0808 4.42694C13.1818 4.32596 13.3187 4.26923 13.4615 4.26923C13.6043 4.26923 13.7413 4.32596 13.8423 4.42694C13.9433 4.52792 14 4.66488 14 4.80769V6.96154C14 7.10435 13.9433 7.24131 13.8423 7.34229C13.7413 7.44327 13.6043 7.5 13.4615 7.5ZM9.69231 1.57692H7.53846C7.39565 1.57692 7.25869 1.52019 7.15771 1.41921C7.05673 1.31823 7 1.18127 7 1.03846C7 0.895653 7.05673 0.758693 7.15771 0.657712C7.25869 0.556731 7.39565 0.5 7.53846 0.5H9.69231C9.83512 0.5 9.97208 0.556731 10.0731 0.657712C10.174 0.758693 10.2308 0.895653 10.2308 1.03846C10.2308 1.18127 10.174 1.31823 10.0731 1.41921C9.97208 1.52019 9.83512 1.57692 9.69231 1.57692ZM9.15385 3.73077H1.61538C1.18696 3.73077 0.776079 3.90096 0.473135 4.2039C0.170192 4.50685 0 4.91773 0 5.34615V12.8846C0 13.313 0.170192 13.7239 0.473135 14.0269C0.776079 14.3298 1.18696 14.5 1.61538 14.5H9.15385C9.58227 14.5 9.99315 14.3298 10.2961 14.0269C10.599 13.7239 10.7692 13.313 10.7692 12.8846V5.34615C10.7692 4.91773 10.599 4.50685 10.2961 4.2039C9.99315 3.90096 9.58227 3.73077 9.15385 3.73077ZM7 9.65385H5.92308V10.7308C5.92308 10.8736 5.86635 11.0105 5.76537 11.1115C5.66438 11.2125 5.52742 11.2692 5.38462 11.2692C5.24181 11.2692 5.10485 11.2125 5.00387 11.1115C4.90288 11.0105 4.84615 10.8736 4.84615 10.7308V9.65385H3.76923C3.62642 9.65385 3.48946 9.59712 3.38848 9.49614C3.2875 9.39515 3.23077 9.25819 3.23077 9.11539C3.23077 8.97258 3.2875 8.83562 3.38848 8.73463C3.48946 8.63365 3.62642 8.57692 3.76923 8.57692H4.84615V7.5C4.84615 7.35719 4.90288 7.22023 5.00387 7.11925C5.10485 7.01827 5.24181 6.96154 5.38462 6.96154C5.52742 6.96154 5.66438 7.01827 5.76537 7.11925C5.86635 7.22023 5.92308 7.35719 5.92308 7.5V8.57692H7C7.14281 8.57692 7.27977 8.63365 7.38075 8.73463C7.48173 8.83562 7.53846 8.97258 7.53846 9.11539C7.53846 9.25819 7.48173 9.39515 7.38075 9.49614C7.27977 9.59712 7.14281 9.65385 7 9.65385Z" fill="#DE2128"/>
</svg>
