<svg width="19" height="19" viewBox="0 0 19 19" fill="none" xmlns="http://www.w3.org/2000/svg">
<path d="M14.1087 0.720108C14.2798 0.734638 14.3546 0.93225 14.2317 1.04752L5.70539 9.10701C5.60907 9.19812 5.54011 9.31178 5.50556 9.43637L4.48076 13.1464C4.44693 13.2691 4.44762 13.3979 4.48274 13.5202C4.51787 13.6425 4.58621 13.7539 4.681 13.8435C4.77579 13.9331 4.89371 13.9977 5.02308 14.0309C5.15244 14.0641 5.28874 14.0648 5.41845 14.0328L9.34238 13.0641C9.47428 13.0311 9.59453 12.9656 9.69081 12.8742L18.338 4.70045C18.3651 4.6742 18.3995 4.65582 18.4373 4.64749C18.475 4.63917 18.5145 4.64124 18.5511 4.65347C18.5876 4.6657 18.6197 4.68758 18.6435 4.7165C18.6673 4.74543 18.6819 4.7802 18.6854 4.81669C19.0452 8.06144 19.0246 11.3338 18.6239 14.5743C18.3954 16.4196 16.8265 17.8678 14.8814 18.0742C11.3189 18.4475 7.72357 18.4475 4.16103 18.0742C2.21494 17.8678 0.645985 16.4196 0.417456 14.5743C-0.0050375 11.1597 -0.0050375 7.71015 0.417456 4.29554C0.645985 2.44922 2.21494 1.00103 4.16103 0.795665C7.46549 0.449511 10.7988 0.424193 14.1087 0.720108Z" fill="#DE2128"/>
</svg>
