<svg width="12" height="12" viewBox="0 0 12 12" fill="none" xmlns="http://www.w3.org/2000/svg">
<path d="M6.00001 0C2.6874 0 0 2.68401 0 5.99685C0 9.31285 2.6874 12 5.99999 12C9.3144 12 11.9995 9.31282 11.9995 5.99685C11.9996 2.68401 9.3144 0 6.00001 0ZM6.42757 9.33541C6.28822 9.45942 6.12672 9.52175 5.94377 9.52175C5.75449 9.52175 5.58938 9.46054 5.44844 9.33788C5.30728 9.21545 5.23656 9.04403 5.23656 8.82379C5.23656 8.62842 5.305 8.46398 5.44144 8.33071C5.57787 8.19745 5.74523 8.13081 5.94377 8.13081C6.13914 8.13081 6.30359 8.19745 6.43708 8.33071C6.57034 8.46398 6.6372 8.6284 6.6372 8.82379C6.63695 9.04087 6.56715 9.21142 6.42757 9.33541ZM8.16518 5.02763C8.05812 5.22617 7.93097 5.39737 7.78347 5.54172C7.63642 5.68605 7.37195 5.92863 6.99021 6.26969C6.88495 6.36591 6.80025 6.45039 6.73679 6.52311C6.67332 6.59608 6.62589 6.66268 6.59494 6.72323C6.56483 6.78116 6.54069 6.842 6.52288 6.90482C6.50593 6.96512 6.48043 7.07151 6.44586 7.22351C6.38714 7.54606 6.20261 7.70731 5.89248 7.70731C5.7312 7.70731 5.59568 7.65468 5.48523 7.5492C5.37522 7.44372 5.32034 7.2872 5.32034 7.0794C5.32034 6.81898 5.36077 6.59332 5.44141 6.40248C5.5216 6.21161 5.62889 6.04425 5.76216 5.89992C5.89565 5.7556 6.07543 5.58437 6.30198 5.38584C6.50051 5.21214 6.64395 5.08115 6.73226 4.99281C6.82005 4.90522 6.89517 4.80578 6.95542 4.69738C7.01619 4.58873 7.046 4.47106 7.046 4.3439C7.046 4.09568 6.95408 3.88653 6.76933 3.716C6.58479 3.54547 6.34671 3.46008 6.05512 3.46008C5.71383 3.46008 5.46267 3.54613 5.30139 3.71825C5.14011 3.89036 5.00393 4.14378 4.89211 4.47875C4.78641 4.82932 4.58629 5.00457 4.29197 5.00457C4.11827 5.00457 3.97169 4.94335 3.85221 4.82092C3.73295 4.69849 3.67332 4.56592 3.67332 4.42318C3.67332 4.12864 3.76796 3.83004 3.95702 3.5276C4.14631 3.22517 4.42232 2.97467 4.78527 2.77635C5.14801 2.57781 5.57154 2.47842 6.05512 2.47842C6.50482 2.47842 6.90168 2.56153 7.2459 2.72755C7.59013 2.89333 7.85619 3.11899 8.04389 3.40448C8.23137 3.68974 8.32532 3.99987 8.32532 4.33484C8.32577 4.59802 8.27225 4.82909 8.16518 5.02763Z" fill="#DE2128"/>
</svg>
