<svg width="16" height="16" viewBox="0 0 16 16" fill="none" xmlns="http://www.w3.org/2000/svg">
<path d="M8.86239 1.4601e-06C9.09758 1.4601e-06 9.30797 0.1464 9.38717 0.365597L9.95195 1.93118C10.1543 1.98158 10.3279 2.03198 10.4751 2.08478C10.6359 2.14238 10.8431 2.22957 11.0991 2.34877L12.4143 1.65278C12.5216 1.59591 12.6445 1.57538 12.7645 1.59427C12.8845 1.61317 12.9952 1.67047 13.0798 1.75758L14.2366 2.95357C14.3902 3.11276 14.4334 3.34556 14.347 3.54876L13.7302 4.99434C13.8326 5.18234 13.9142 5.34314 13.9766 5.47754C14.0438 5.62393 14.127 5.82553 14.2262 6.08553L15.6638 6.70152C15.8797 6.79352 16.0133 7.00952 15.9989 7.24071L15.8933 8.90069C15.8861 9.00854 15.8474 9.11189 15.782 9.19792C15.7166 9.28396 15.6273 9.3489 15.5254 9.38469L14.1638 9.86868C14.1246 10.0567 14.0838 10.2175 14.0406 10.3535C13.9709 10.5635 13.8914 10.7701 13.8022 10.9727L14.4862 12.4847C14.5345 12.5909 14.5475 12.7098 14.5233 12.8239C14.4991 12.9381 14.439 13.0415 14.3518 13.119L13.051 14.2806C12.9654 14.3568 12.8585 14.405 12.7447 14.4187C12.6309 14.4324 12.5156 14.4111 12.4143 14.3574L11.0735 13.647C10.8637 13.7581 10.6473 13.8562 10.4255 13.9406L9.83995 14.1598L9.31997 15.5998C9.28144 15.7053 9.21193 15.7966 9.12056 15.8619C9.02919 15.9271 8.92024 15.9632 8.80799 15.9654L7.28804 15.9998C7.17282 16.0028 7.05948 15.9701 6.96364 15.906C6.8678 15.842 6.79416 15.7498 6.75286 15.6422L6.14008 14.0206C5.93101 13.9492 5.724 13.8718 5.5193 13.7886C5.35188 13.7162 5.18699 13.638 5.02492 13.5542L3.50497 14.2038C3.40482 14.2466 3.29441 14.2592 3.18718 14.2404C3.07994 14.2215 2.98052 14.1718 2.90099 14.0974L1.77623 13.0422C1.69249 12.964 1.63546 12.8615 1.61321 12.749C1.59096 12.6366 1.60461 12.5201 1.65224 12.4159L2.30581 10.9919C2.21889 10.8232 2.13831 10.6514 2.06422 10.4767C1.97775 10.2629 1.89771 10.0465 1.82423 9.82788L0.39228 9.39189C0.275885 9.35671 0.174363 9.28408 0.103482 9.18527C0.032601 9.08647 -0.00367291 8.96703 0.000293965 8.8455L0.056292 7.30871C0.060278 7.20844 0.0916001 7.11117 0.146871 7.02742C0.202142 6.94366 0.279259 6.87661 0.369881 6.83352L1.87223 6.11193C1.94183 5.85673 2.00262 5.65833 2.05622 5.51354C2.13169 5.32013 2.2155 5.13009 2.30741 4.94394L1.65624 3.56796C1.60682 3.46347 1.59181 3.34599 1.61337 3.23243C1.63494 3.11887 1.69195 3.01507 1.77623 2.93597L2.89939 1.87518C2.97813 1.80092 3.07664 1.75099 3.18309 1.73141C3.28953 1.71182 3.39936 1.72341 3.49937 1.76478L5.01772 2.39197C5.18571 2.27997 5.33771 2.18958 5.4753 2.11678C5.6393 2.02958 5.85849 1.93838 6.13448 1.83998L6.66246 0.367197C6.7015 0.259413 6.77285 0.166305 6.86677 0.100585C6.96069 0.0348657 7.07261 -0.000260997 7.18725 1.4601e-06H8.86239ZM8.01922 5.61513C6.68566 5.61513 5.6049 6.68312 5.6049 8.0015C5.6049 9.31989 6.68566 10.3887 8.01922 10.3887C9.35197 10.3887 10.4327 9.31989 10.4327 8.0015C10.4327 6.68312 9.35277 5.61513 8.01922 5.61513Z" fill="#DE2128"/>
</svg>
