<svg width="14" height="12" viewBox="0 0 14 12" fill="none" xmlns="http://www.w3.org/2000/svg">
<path d="M5.4001 5.19844C6.03662 5.19844 6.64707 4.94558 7.09715 4.49549C7.54724 4.04541 7.8001 3.43496 7.8001 2.79844C7.8001 2.16192 7.54724 1.55147 7.09715 1.10138C6.64707 0.651294 6.03662 0.398438 5.4001 0.398438C4.76358 0.398438 4.15313 0.651294 3.70304 1.10138C3.25295 1.55147 3.0001 2.16192 3.0001 2.79844C3.0001 3.43496 3.25295 4.04541 3.70304 4.49549C4.15313 4.94558 4.76358 5.19844 5.4001 5.19844ZM5.4001 6.79844C6.67314 6.79844 7.89404 7.30415 8.79421 8.20433C9.69438 9.1045 10.2001 10.3254 10.2001 11.5984H0.600098C0.600098 10.3254 1.10581 9.1045 2.00599 8.20433C2.90616 7.30415 4.12706 6.79844 5.4001 6.79844ZM11.8001 3.59844C11.8001 3.38626 11.7158 3.18278 11.5658 3.03275C11.4158 2.88272 11.2123 2.79844 11.0001 2.79844C10.7879 2.79844 10.5844 2.88272 10.4344 3.03275C10.2844 3.18278 10.2001 3.38626 10.2001 3.59844V4.39844H9.4001C9.18792 4.39844 8.98444 4.48272 8.83441 4.63275C8.68438 4.78278 8.6001 4.98626 8.6001 5.19844C8.6001 5.41061 8.68438 5.61409 8.83441 5.76412C8.98444 5.91415 9.18792 5.99844 9.4001 5.99844H10.2001V6.79844C10.2001 7.01061 10.2844 7.21409 10.4344 7.36412C10.5844 7.51415 10.7879 7.59844 11.0001 7.59844C11.2123 7.59844 11.4158 7.51415 11.5658 7.36412C11.7158 7.21409 11.8001 7.01061 11.8001 6.79844V5.99844H12.6001C12.8123 5.99844 13.0158 5.91415 13.1658 5.76412C13.3158 5.61409 13.4001 5.41061 13.4001 5.19844C13.4001 4.98626 13.3158 4.78278 13.1658 4.63275C13.0158 4.48272 12.8123 4.39844 12.6001 4.39844H11.8001V3.59844Z" fill="#DE2128"/>
</svg>
