<svg width="20" height="20" viewBox="0 0 20 20" fill="none" xmlns="http://www.w3.org/2000/svg">
<path d="M19.5941 15.0267L12.5212 2.0057C11.9874 1.10703 11.0445 0.570312 9.99924 0.570312C8.95392 0.570312 8.01111 1.10703 7.47728 2.0057C7.47326 2.01258 7.46986 2.01945 7.46584 2.02633L0.416462 15.0061C-0.128812 15.9237 -0.139124 17.0257 0.388376 17.9537C0.917087 18.8821 1.86959 19.436 2.93783 19.436H17.0216C18.0898 19.436 19.0815 18.8821 19.6101 17.9537C20.1376 17.0258 20.1274 15.9237 19.5941 15.0267ZM8.82619 6.53238C8.82619 5.88449 9.35138 5.35934 9.99924 5.35934C10.6471 5.35934 11.1723 5.88453 11.1723 6.53238V11.2246C11.1723 11.8724 10.6471 12.3977 9.99924 12.3977C9.35138 12.3977 8.82619 11.8724 8.82619 11.2246V6.53238ZM9.99924 17.0899C9.02896 17.0899 8.23963 16.3006 8.23963 15.3303C8.23963 14.36 9.02892 13.5707 9.99924 13.5707C10.9695 13.5707 11.7588 14.36 11.7588 15.3303C11.7588 16.3006 10.9695 17.0899 9.99924 17.0899Z" fill="#FD1212"/>
</svg>
