<svg width="26" height="26" viewBox="0 0 26 26" fill="none" xmlns="http://www.w3.org/2000/svg">
<path d="M11.9826 0.381495C12.1323 -0.07916 12.784 -0.079161 12.9337 0.381494L15.3862 7.92954C15.4531 8.13555 15.6451 8.27503 15.8617 8.27503H23.7982C24.2826 8.27503 24.484 8.89484 24.0921 9.17954L17.6714 13.8445C17.4961 13.9718 17.4228 14.1975 17.4897 14.4035L19.9422 21.9515C20.0919 22.4122 19.5647 22.7953 19.1728 22.5106L12.7521 17.8456C12.5768 17.7183 12.3395 17.7183 12.1643 17.8456L5.74353 22.5106C5.35167 22.7953 4.82443 22.4122 4.97411 21.9515L7.42661 14.4035C7.49355 14.1975 7.42022 13.9718 7.24498 13.8445L0.824229 9.17954C0.432372 8.89484 0.63376 8.27503 1.11812 8.27503H9.05461C9.27122 8.27503 9.4632 8.13555 9.53013 7.92954L11.9826 0.381495Z" fill="#84828A"/>
</svg>
