<svg width="21" height="19" viewBox="0 0 21 19" fill="none" xmlns="http://www.w3.org/2000/svg">
<path d="M9.58246 19C9.17303 18.9997 8.77896 18.8447 8.47986 18.5663C8.18077 18.2879 7.99894 17.9069 7.97112 17.5002H1.61538C0.7245 17.5002 0 16.7788 0 15.8918C0 15.0047 0.7245 14.2834 1.61538 14.2834H7.97112C8.02604 13.4462 8.72873 12.7827 9.58246 12.7827C10.4362 12.7827 11.1389 13.4462 11.1938 14.2834H19.3846C20.2755 14.2834 21 15.0047 21 15.8918C21 16.7788 20.2755 17.5002 19.3846 17.5002H11.1938C11.166 17.9069 10.9842 18.2879 10.6851 18.5663C10.386 18.8447 9.9919 18.9997 9.58246 19ZM15.0853 12.609C14.6756 12.6089 14.2814 12.4539 13.9822 12.1753C13.6831 11.8967 13.5014 11.5153 13.4739 11.1084H1.61538C0.7245 11.1084 0 10.387 0 9.5C0 8.61297 0.7245 7.8916 1.61538 7.8916H13.4739C13.5288 7.05443 14.2315 6.39097 15.0853 6.39097C15.939 6.39097 16.6417 7.05443 16.6966 7.8916H19.3846C20.2755 7.8916 21 8.61297 21 9.5C21 10.387 20.2755 11.1084 19.3846 11.1084H16.6966C16.6688 11.5152 16.487 11.8963 16.1879 12.1749C15.8889 12.4534 15.4948 12.6085 15.0853 12.609ZM5.91473 6.21726C5.50511 6.21716 5.11083 6.06212 4.81167 5.78352C4.51251 5.50491 4.33083 5.12356 4.30338 4.71663H1.61538C0.7245 4.71663 0 3.99526 0 3.10823C0 2.2212 0.7245 1.49983 1.61538 1.49983H4.30338C4.35912 0.663464 5.061 0 5.91473 0C6.76846 0 7.47035 0.663464 7.52608 1.49983H19.3846C20.2755 1.49983 21 2.2212 21 3.10823C21 3.99526 20.2755 4.71663 19.3846 4.71663H7.52608C7.49863 5.12356 7.31695 5.50491 7.01779 5.78352C6.71864 6.06212 6.32435 6.21716 5.91473 6.21726Z" fill="#84828A"/>
</svg>
