<svg width="17" height="16" viewBox="0 0 17 16" fill="none" xmlns="http://www.w3.org/2000/svg">
<path fill-rule="evenodd" clip-rule="evenodd" d="M16.9766 8C16.9766 10.1217 16.1337 12.1566 14.6334 13.6569C13.1331 15.1571 11.0983 16 8.97656 16C6.85483 16 4.82 15.1571 3.31971 13.6569C1.81942 12.1566 0.976563 10.1217 0.976562 8C0.976563 5.87827 1.81942 3.84344 3.31971 2.34315C4.82 0.842855 6.85483 0 8.97656 0C11.0983 0 13.1331 0.842855 14.6334 2.34315C16.1337 3.84344 16.9766 5.87827 16.9766 8ZM8.97656 5C8.80086 4.99983 8.62822 5.04595 8.47601 5.13373C8.32381 5.22151 8.19741 5.34784 8.10956 5.5C8.04613 5.61788 7.95967 5.72182 7.85532 5.80566C7.75097 5.8895 7.63085 5.95154 7.50208 5.9881C7.37331 6.02466 7.23851 6.03499 7.10567 6.01849C6.97283 6.00198 6.84466 5.95897 6.72875 5.89201C6.61284 5.82505 6.51155 5.7355 6.43089 5.62867C6.35024 5.52184 6.29185 5.3999 6.25919 5.27008C6.22653 5.14027 6.22027 5.00522 6.24078 4.87294C6.26128 4.74065 6.30814 4.61384 6.37856 4.5C6.70878 3.92811 7.21847 3.48116 7.82859 3.22846C8.4387 2.97576 9.11515 2.93144 9.75303 3.10236C10.3909 3.27328 10.9546 3.64989 11.3566 4.1738C11.7586 4.6977 11.9765 5.33962 11.9766 6C11.9767 6.62062 11.7845 7.22603 11.4263 7.73285C11.0681 8.23968 10.5616 8.62299 9.97656 8.83V9C9.97656 9.26522 9.87121 9.51957 9.68367 9.70711C9.49613 9.89464 9.24178 10 8.97656 10C8.71135 10 8.45699 9.89464 8.26946 9.70711C8.08192 9.51957 7.97656 9.26522 7.97656 9V8C7.97656 7.73478 8.08192 7.48043 8.26946 7.29289C8.45699 7.10536 8.71135 7 8.97656 7C9.24178 7 9.49613 6.89464 9.68367 6.70711C9.87121 6.51957 9.97656 6.26522 9.97656 6C9.97656 5.73478 9.87121 5.48043 9.68367 5.29289C9.49613 5.10536 9.24178 5 8.97656 5ZM8.97656 13C9.24178 13 9.49613 12.8946 9.68367 12.7071C9.87121 12.5196 9.97656 12.2652 9.97656 12C9.97656 11.7348 9.87121 11.4804 9.68367 11.2929C9.49613 11.1054 9.24178 11 8.97656 11C8.71135 11 8.45699 11.1054 8.26946 11.2929C8.08192 11.4804 7.97656 11.7348 7.97656 12C7.97656 12.2652 8.08192 12.5196 8.26946 12.7071C8.45699 12.8946 8.71135 13 8.97656 13Z" fill="#84828A"/>
</svg>
