<svg width="18" height="18" viewBox="0 0 18 18" fill="none" xmlns="http://www.w3.org/2000/svg">
<path d="M7.72356 2.125L8.77793 0.25H4.22168L5.27605 2.125H7.72356Z" fill="#84828A"/>
<path d="M9.625 15.25H4.9375C4.85462 15.25 4.77513 15.2171 4.71653 15.1585C4.65792 15.0999 4.625 15.0204 4.625 14.9375C4.625 14.8546 4.65792 14.7751 4.71653 14.7165C4.77513 14.6579 4.85462 14.625 4.9375 14.625H9.625V12.125H4.9375C4.85462 12.125 4.77513 12.0921 4.71653 12.0335C4.65792 11.9749 4.625 11.8954 4.625 11.8125C4.625 11.7296 4.65792 11.6501 4.71653 11.5915C4.77513 11.5329 4.85462 11.5 4.9375 11.5H9.625V11.3263C9.25313 11.1094 9 10.7106 9 10.25V9.625C9 9.39625 9.06625 9.18437 9.17375 9H4.9375C4.85462 9 4.77513 8.96708 4.71653 8.90847C4.65792 8.84987 4.625 8.77038 4.625 8.6875C4.625 8.60462 4.65792 8.52513 4.71653 8.46653C4.77513 8.40792 4.85462 8.375 4.9375 8.375H12.75V0.875C12.75 0.70924 12.6842 0.550268 12.5669 0.433058C12.4497 0.315848 12.2908 0.25 12.125 0.25H9.495L8.17875 2.59062C8.15156 2.63899 8.11199 2.67924 8.0641 2.70725C8.01621 2.73526 7.96173 2.75002 7.90625 2.75H5.09375C5.03827 2.75002 4.98379 2.73526 4.9359 2.70725C4.88801 2.67924 4.84844 2.63899 4.82125 2.59062L3.505 0.25H0.875C0.70924 0.25 0.550268 0.315848 0.433058 0.433058C0.315848 0.550268 0.25 0.70924 0.25 0.875V17.125C0.25 17.2908 0.315848 17.4497 0.433058 17.5669C0.550268 17.6842 0.70924 17.75 0.875 17.75H12.125C12.2908 17.75 12.4497 17.6842 12.5669 17.5669C12.6842 17.4497 12.75 17.2908 12.75 17.125V16.5H10.875C10.1856 16.5 9.625 15.9394 9.625 15.25ZM4.9375 5.25H11.1875C11.2704 5.25 11.3499 5.28292 11.4085 5.34153C11.4671 5.40013 11.5 5.47962 11.5 5.5625C11.5 5.64538 11.4671 5.72487 11.4085 5.78347C11.3499 5.84208 11.2704 5.875 11.1875 5.875H4.9375C4.85462 5.875 4.77513 5.84208 4.71653 5.78347C4.65792 5.72487 4.625 5.64538 4.625 5.5625C4.625 5.47962 4.65792 5.40013 4.71653 5.34153C4.77513 5.28292 4.85462 5.25 4.9375 5.25ZM3.90875 13.9088L2.65875 15.1588C2.62981 15.188 2.59535 15.2112 2.55737 15.2271C2.51939 15.2429 2.47865 15.2511 2.4375 15.2511C2.39635 15.2511 2.35561 15.2429 2.31763 15.2271C2.27965 15.2112 2.24519 15.188 2.21625 15.1588L1.59125 14.5338C1.56219 14.5047 1.53915 14.4702 1.52342 14.4322C1.5077 14.3943 1.49961 14.3536 1.49961 14.3125C1.49961 14.2714 1.5077 14.2307 1.52342 14.1928C1.53915 14.1548 1.56219 14.1203 1.59125 14.0912C1.6203 14.0622 1.6548 14.0391 1.69276 14.0234C1.73072 14.0077 1.77141 13.9996 1.8125 13.9996C1.85359 13.9996 1.89428 14.0077 1.93224 14.0234C1.9702 14.0391 2.0047 14.0622 2.03375 14.0912L2.4375 14.4956L3.46625 13.4662C3.4953 13.4372 3.5298 13.4141 3.56776 13.3984C3.60572 13.3827 3.64641 13.3746 3.6875 13.3746C3.72859 13.3746 3.76928 13.3827 3.80724 13.3984C3.8452 13.4141 3.8797 13.4372 3.90875 13.4662C3.9378 13.4953 3.96085 13.5298 3.97658 13.5678C3.9923 13.6057 4.00039 13.6464 4.00039 13.6875C4.00039 13.7286 3.9923 13.7693 3.97658 13.8072C3.96085 13.8452 3.9378 13.8797 3.90875 13.9088ZM3.90875 10.7838L2.65875 12.0338C2.62981 12.063 2.59535 12.0862 2.55737 12.1021C2.51939 12.1179 2.47865 12.1261 2.4375 12.1261C2.39635 12.1261 2.35561 12.1179 2.31763 12.1021C2.27965 12.0862 2.24519 12.063 2.21625 12.0338L1.59125 11.4088C1.56219 11.3797 1.53915 11.3452 1.52342 11.3072C1.5077 11.2693 1.49961 11.2286 1.49961 11.1875C1.49961 11.1464 1.5077 11.1057 1.52342 11.0678C1.53915 11.0298 1.56219 10.9953 1.59125 10.9662C1.6203 10.9372 1.6548 10.9141 1.69276 10.8984C1.73072 10.8827 1.77141 10.8746 1.8125 10.8746C1.85359 10.8746 1.89428 10.8827 1.93224 10.8984C1.9702 10.9141 2.0047 10.9372 2.03375 10.9662L2.4375 11.3706L3.46625 10.3412C3.4953 10.3122 3.5298 10.2891 3.56776 10.2734C3.60572 10.2577 3.64641 10.2496 3.6875 10.2496C3.72859 10.2496 3.76928 10.2577 3.80724 10.2734C3.8452 10.2891 3.8797 10.3122 3.90875 10.3412C3.9378 10.3703 3.96085 10.4048 3.97658 10.4428C3.9923 10.4807 4.00039 10.5214 4.00039 10.5625C4.00039 10.6036 3.9923 10.6443 3.97658 10.6822C3.96085 10.7202 3.9378 10.7547 3.90875 10.7838ZM3.90875 7.65875L2.65875 8.90875C2.62981 8.938 2.59535 8.96122 2.55737 8.97707C2.51939 8.99292 2.47865 9.00108 2.4375 9.00108C2.39635 9.00108 2.35561 8.99292 2.31763 8.97707C2.27965 8.96122 2.24519 8.938 2.21625 8.90875L1.59125 8.28375C1.56219 8.25469 1.53915 8.2202 1.52342 8.18224C1.5077 8.14428 1.49961 8.10359 1.49961 8.0625C1.49961 8.02141 1.5077 7.98072 1.52342 7.94276C1.53915 7.9048 1.56219 7.87031 1.59125 7.84125C1.6203 7.81219 1.6548 7.78915 1.69276 7.77342C1.73072 7.7577 1.77141 7.74961 1.8125 7.74961C1.85359 7.74961 1.89428 7.7577 1.93224 7.77342C1.9702 7.78915 2.0047 7.81219 2.03375 7.84125L2.4375 8.24563L3.46625 7.21625C3.4953 7.18719 3.5298 7.16415 3.56776 7.14842C3.60572 7.1327 3.64641 7.12461 3.6875 7.12461C3.72859 7.12461 3.76928 7.1327 3.80724 7.14842C3.8452 7.16415 3.8797 7.18719 3.90875 7.21625C3.9378 7.24531 3.96085 7.2798 3.97658 7.31776C3.9923 7.35572 4.00039 7.39641 4.00039 7.4375C4.00039 7.47859 3.9923 7.51928 3.97658 7.55724C3.96085 7.5952 3.9378 7.62969 3.90875 7.65875ZM3.90875 4.53375L2.65875 5.78375C2.62981 5.813 2.59535 5.83622 2.55737 5.85207C2.51939 5.86792 2.47865 5.87608 2.4375 5.87608C2.39635 5.87608 2.35561 5.86792 2.31763 5.85207C2.27965 5.83622 2.24519 5.813 2.21625 5.78375L1.59125 5.15875C1.56219 5.12969 1.53915 5.0952 1.52342 5.05724C1.5077 5.01928 1.49961 4.97859 1.49961 4.9375C1.49961 4.89641 1.5077 4.85572 1.52342 4.81776C1.53915 4.7798 1.56219 4.74531 1.59125 4.71625C1.6203 4.68719 1.6548 4.66415 1.69276 4.64842C1.73072 4.6327 1.77141 4.62461 1.8125 4.62461C1.85359 4.62461 1.89428 4.6327 1.93224 4.64842C1.9702 4.66415 2.0047 4.68719 2.03375 4.71625L2.4375 5.12063L3.46625 4.09125C3.4953 4.0622 3.5298 4.03915 3.56776 4.02342C3.60572 4.0077 3.64641 3.99961 3.6875 3.99961C3.72859 3.99961 3.76928 4.0077 3.80724 4.02342C3.8452 4.03915 3.8797 4.0622 3.90875 4.09125C3.9378 4.1203 3.96085 4.1548 3.97658 4.19276C3.9923 4.23072 4.00039 4.27141 4.00039 4.3125C4.00039 4.35359 3.9923 4.39428 3.97658 4.43224C3.96085 4.4702 3.9378 4.50469 3.90875 4.53375Z" fill="#84828A"/>
<path d="M17.125 9H10.25C10.0842 9 9.92527 9.06585 9.80806 9.18306C9.69085 9.30027 9.625 9.45924 9.625 9.625V10.25C9.625 10.4158 9.69085 10.5747 9.80806 10.6919C9.92527 10.8092 10.0842 10.875 10.25 10.875H17.125C17.2908 10.875 17.4497 10.8092 17.5669 10.6919C17.6842 10.5747 17.75 10.4158 17.75 10.25V9.625C17.75 9.45924 17.6842 9.30027 17.5669 9.18306C17.4497 9.06585 17.2908 9 17.125 9ZM10.25 15.25C10.25 15.4158 10.3158 15.5747 10.4331 15.6919C10.5503 15.8092 10.7092 15.875 10.875 15.875H16.5C16.6658 15.875 16.8247 15.8092 16.9419 15.6919C17.0592 15.5747 17.125 15.4158 17.125 15.25V11.5H10.25V15.25ZM13.0625 12.4375H14.3125C14.3954 12.4375 14.4749 12.4704 14.5335 12.529C14.5921 12.5876 14.625 12.6671 14.625 12.75C14.625 12.8329 14.5921 12.9124 14.5335 12.971C14.4749 13.0296 14.3954 13.0625 14.3125 13.0625H13.0625C12.9796 13.0625 12.9001 13.0296 12.8415 12.971C12.7829 12.9124 12.75 12.8329 12.75 12.75C12.75 12.6671 12.7829 12.5876 12.8415 12.529C12.9001 12.4704 12.9796 12.4375 13.0625 12.4375Z" fill="#84828A"/>
</svg>
