<svg width="19" height="24" viewBox="0 0 19 24" fill="none" xmlns="http://www.w3.org/2000/svg">
<path d="M15.4028 14.1188C15.3247 14.1969 15.3247 14.3236 15.4028 14.4017L17.2568 16.2557C17.3349 16.3338 17.4615 16.3338 17.5397 16.2557L18.6746 15.1208C19.1083 14.6868 19.1083 13.9808 18.6746 13.5469L18.1115 12.9839C17.6776 12.55 16.9716 12.55 16.5377 12.9839L15.4028 14.1188ZM8.94148 20.8627C8.86339 20.7846 8.86339 20.658 8.94149 20.5799L14.106 15.4154C14.1841 15.3373 14.3107 15.3373 14.3888 15.4154L16.2429 17.2693C16.321 17.3474 16.321 17.474 16.2429 17.5521L11.0782 22.7168C11.0001 22.7949 10.8734 22.7949 10.7953 22.7168L8.94148 20.8627ZM9.88448 23.9033C9.89062 23.902 9.89625 23.899 9.90068 23.8945C9.91321 23.882 9.9132 23.8616 9.90066 23.8491L7.80917 21.7576C7.79665 21.7451 7.77635 21.7451 7.76387 21.7576C7.75949 21.762 7.75648 21.7676 7.75522 21.7737L7.2588 24.1632C7.22951 24.3042 7.35432 24.429 7.4953 24.3997L9.88448 23.9033ZM11.7675 0.380488C11.6415 0.254494 11.4261 0.343727 11.4261 0.521908V5.32865C11.4261 5.4391 11.5156 5.52865 11.6261 5.52865H16.4328C16.611 5.52865 16.7002 5.31322 16.5742 5.18723L11.7675 0.380488ZM13.745 22.0777C13.6191 22.2037 13.7083 22.4191 13.8865 22.4191H16.7696C16.88 22.4191 16.9696 22.3295 16.9696 22.2191V19.3359C16.9696 19.1577 16.7541 19.0684 16.6281 19.1944L13.745 22.0777Z" fill="#84828A"/>
<path d="M6.41628 21.1706C6.43214 21.0943 6.46996 21.0243 6.52508 20.9691L9.91317 17.5812C10.1652 17.3292 9.9867 16.8983 9.63034 16.8983H5.12754C4.90663 16.8983 4.72754 16.7192 4.72754 16.4983V15.8649C4.72754 15.6439 4.90663 15.4649 5.12754 15.4649H11.8639C11.97 15.4649 12.0717 15.4227 12.1468 15.3477L15.524 11.9704C15.8421 11.6523 16.2242 11.4362 16.6292 11.3219C16.8212 11.2678 16.9695 11.1021 16.9695 10.9025V7.36222C16.9695 7.1413 16.7904 6.96222 16.5695 6.96222H10.3925C10.1716 6.96222 9.99248 6.78313 9.99248 6.56222V0.4C9.99248 0.179086 9.81339 0 9.59248 0H0.399999C0.179085 0 0 0.179086 0 0.4V22.0192C0 22.2401 0.179086 22.4192 0.4 22.4192H5.83145C6.021 22.4192 6.18453 22.2861 6.22308 22.1006L6.41628 21.1706ZM4.72751 10.3759C4.7275 10.155 4.90659 9.9759 5.12751 9.9759H11.8421C12.063 9.9759 12.2421 10.155 12.2421 10.3759V11.0094C12.2421 11.2303 12.063 11.4094 11.8421 11.4094H5.12753C4.90662 11.4094 4.72753 11.2303 4.72753 11.0094L4.72751 10.3759ZM4.72751 13.1203C4.7275 12.8994 4.90659 12.7203 5.12751 12.7203H11.8421C12.063 12.7203 12.2421 12.8993 12.2421 13.1203V13.7538C12.2421 13.9747 12.063 14.1538 11.8421 14.1538H5.12753C4.90662 14.1538 4.72753 13.9747 4.72753 13.7538L4.72751 13.1203Z" fill="#84828A"/>
</svg>
