<svg width="20" height="20" viewBox="0 0 20 20" fill="none" xmlns="http://www.w3.org/2000/svg">
<path d="M2.96875 9.375C3.44148 9.375 3.86934 9.18535 4.18547 8.88078L5.91996 9.74793C5.91125 9.81855 5.89844 9.88801 5.89844 9.96094C5.89844 10.9302 6.68703 11.7188 7.65625 11.7188C8.62547 11.7188 9.41406 10.9302 9.41406 9.96094C9.41406 9.69039 9.34754 9.43711 9.23781 9.20793L11.5907 6.855C11.8199 6.96473 12.0732 7.03125 12.3438 7.03125C13.313 7.03125 14.1016 6.24266 14.1016 5.27344C14.1016 5.09094 14.0657 4.91836 14.0138 4.75281L16.0582 3.21992C16.3371 3.40625 16.6715 3.51562 17.0312 3.51562C18.0005 3.51562 18.7891 2.72703 18.7891 1.75781C18.7891 0.788594 18.0005 0 17.0312 0C16.062 0 15.2734 0.788594 15.2734 1.75781C15.2734 1.94031 15.3093 2.11289 15.3612 2.27844L13.3168 3.81133C13.0379 3.625 12.7035 3.51562 12.3438 3.51562C11.3745 3.51562 10.5859 4.30422 10.5859 5.27344C10.5859 5.54398 10.6525 5.79727 10.7622 6.02644L8.40926 8.37937C8.18008 8.26965 7.9268 8.20312 7.65625 8.20312C7.18352 8.20312 6.75566 8.39277 6.43953 8.69734L4.70504 7.8302C4.71375 7.75957 4.72656 7.69012 4.72656 7.61719C4.72656 6.64793 3.93801 5.85938 2.96875 5.85938C1.99949 5.85938 1.21094 6.64797 1.21094 7.61719C1.21094 8.58641 1.99953 9.375 2.96875 9.375Z" fill="#84828A"/>
<path d="M19.4141 18.8281H18.7891V6.44531C18.7891 6.12148 18.527 5.85938 18.2031 5.85938H15.8594C15.5355 5.85938 15.2734 6.12148 15.2734 6.44531V18.8281H14.1016V9.96094C14.1016 9.63711 13.8395 9.375 13.5156 9.375H11.1719C10.848 9.375 10.5859 9.63711 10.5859 9.96094V18.8281H9.41406V14.6484C9.41406 14.3246 9.15195 14.0625 8.82812 14.0625H6.48438C6.16055 14.0625 5.89844 14.3246 5.89844 14.6484V18.8281H4.72656V12.3047C4.72656 11.9809 4.46445 11.7188 4.14062 11.7188H1.79688C1.47305 11.7188 1.21094 11.9809 1.21094 12.3047V18.8281H0.585938C0.262109 18.8281 0 19.0902 0 19.4141C0 19.7379 0.262109 20 0.585938 20H19.4141C19.7379 20 20 19.7379 20 19.4141C20 19.0902 19.7379 18.8281 19.4141 18.8281Z" fill="#84828A"/>
</svg>
