<svg width="20" height="20" viewBox="0 0 20 20" fill="none" xmlns="http://www.w3.org/2000/svg">
<g clip-path="url(#clip0_2976_1124)">
<path d="M1.17783 10.129L1.19302 10.14L3.09933 9.13781L5.00563 10.14L5.02082 10.129L4.65676 8.00626L6.19865 6.50326L6.19276 6.48506L4.06187 6.17543L3.10905 4.24476H3.08964L2.13678 6.17543L0.00593561 6.48506L0 6.50326L1.54193 8.00626L1.17783 10.129ZM14.9728 10.129L14.988 10.14L16.8943 9.13781L18.8006 10.14L18.8158 10.129L18.4517 8.00626L19.9936 6.50326L19.9877 6.48506L17.8569 6.17543L16.904 4.24476H16.8846L15.9318 6.17543L13.8009 6.48506L13.795 6.50326L15.3369 8.00626L14.9728 10.129ZM7.97387 7.71834L7.98988 7.72994L9.99682 6.67484L12.0038 7.72994L12.0198 7.71834L11.6365 5.48354L13.2598 3.9012L13.2536 3.88202L11.0102 3.55603L10.007 1.52344H9.98663L8.98347 3.55603L6.74008 3.88202L6.73383 3.9012L8.35718 5.48354L7.97387 7.71834ZM19.28 15.75L20 13.0231H16.5421V18.4768H20L19.28 15.75ZM0.725082 15.75L0.00503746 18.4768H3.46296V13.0231H0.00503746L0.725082 15.75ZM4.63446 11.7109H15.3706V17.1647H4.63446V11.7109Z" fill="#84828A"/>
</g>
<defs>
<clipPath id="clip0_2976_1124">
<rect width="20" height="20" fill="white"/>
</clipPath>
</defs>
</svg>
