<svg width="7" height="12" viewBox="0 0 7 12" fill="none" xmlns="http://www.w3.org/2000/svg">
<path d="M1.38709 0.237467L6.82257 5.55673C6.88709 5.62005 6.93289 5.68865 6.95999 5.76253C6.98709 5.83641 7.00042 5.91557 6.99999 6C6.99999 6.08443 6.98644 6.16359 6.95934 6.23747C6.93225 6.31135 6.88666 6.37995 6.82257 6.44327L1.38709 11.7784C1.23656 11.9261 1.04839 12 0.822579 12C0.596773 12 0.403225 11.9208 0.241935 11.7625C0.0806451 11.6042 0 11.4195 0 11.2084C0 10.9974 0.0806451 10.8127 0.241935 10.6544L4.98386 6L0.241935 1.34565C0.0913978 1.19789 0.0161285 1.01573 0.0161285 0.799156C0.0161285 0.582586 0.0967736 0.395356 0.258064 0.237467C0.419354 0.0791559 0.607526 0 0.822579 0C1.03763 0 1.2258 0.0791559 1.38709 0.237467Z" fill="#84828A"/>
</svg>
