<svg width="24" height="23" viewBox="0 0 24 23" fill="none" xmlns="http://www.w3.org/2000/svg">
<path d="M21.3749 0.25H13.5818C13.0663 0.25 12.3458 0.548664 11.9815 0.912643L1.29716 11.597C0.567614 12.3258 0.567614 13.5205 1.29716 14.2484L9.25252 22.2036C9.98042 22.9323 11.174 22.9323 11.903 22.2027L22.5874 11.52C22.9513 11.1561 23.25 10.4344 23.25 9.91992V2.1251C23.25 1.09403 22.4059 0.25 21.3749 0.25ZM17.6247 7.75012C16.5891 7.75012 15.7496 6.90971 15.7496 5.87502C15.7496 4.83862 16.5891 3.99992 17.6247 3.99992C18.6603 3.99992 19.5001 4.83862 19.5001 5.87502C19.5001 6.90971 18.6603 7.75012 17.6247 7.75012Z" fill="#84828A"/>
</svg>
