<svg width="18" height="23" viewBox="0 0 18 23" fill="none" xmlns="http://www.w3.org/2000/svg">
<path d="M8.8077 0C10.0969 0 11.2658 0.524563 12.1104 1.36922C12.9551 2.21387 13.4797 3.383 13.4797 4.67195C13.4797 5.96113 12.9551 7.13005 12.1104 7.97469C11.2658 8.81933 10.0967 9.34391 8.8077 9.34391C7.51852 9.34391 6.3496 8.81935 5.50496 7.97469C4.66032 7.13004 4.13574 5.96091 4.13574 4.67195C4.13574 3.38278 4.66031 2.21386 5.50496 1.36922C6.34962 0.524579 7.51874 0 8.8077 0Z" fill="#84828A"/>
<path d="M3.64096 18.1265H0.347108H0.338218C0.147066 18.1221 -0.00852475 17.9576 0.000362757 17.7664C0.00925351 17.5486 0.0136992 17.3308 0.0181445 17.1085C0.0448174 15.9038 0.0803784 14.5303 0.387117 13.4679C0.658288 12.5298 1.14283 11.7875 2.04973 11.1253C2.91214 10.4941 4.16132 9.94282 5.98375 9.36047C6.09044 9.32046 6.21047 9.3338 6.31271 9.40048C6.67279 9.65832 7.07287 9.85836 7.49963 9.99616C7.91306 10.1251 8.35316 10.1962 8.81547 10.1962C9.27778 10.1962 9.71787 10.1251 10.1313 9.99616C10.5581 9.85835 10.9582 9.65831 11.3182 9.40048C11.4027 9.34269 11.5094 9.32046 11.6161 9.34714C13.6254 9.90727 14.9366 10.5118 15.8079 11.232C16.7103 11.9833 17.1327 12.8501 17.355 13.9168C17.555 14.8993 17.5861 16.0506 17.6128 17.1085C17.6172 17.3174 17.6217 17.5175 17.6306 17.7308C17.6306 17.7442 17.635 17.7575 17.635 17.7708C17.635 17.9664 17.4794 18.122 17.2838 18.122H13.9898V17.4997C13.9898 17.1174 13.8386 16.7484 13.5674 16.4772C13.4341 16.3439 13.2785 16.2372 13.1096 16.1661C13.1807 15.9971 13.2163 15.8104 13.2163 15.6237C13.2163 15.2414 13.0651 14.8724 12.7939 14.6013L12.1671 13.9745C11.896 13.7033 11.527 13.5521 11.1447 13.5521C10.958 13.5521 10.7713 13.5877 10.6024 13.6588C10.5312 13.4899 10.4245 13.3343 10.2912 13.201C10.02 12.9298 9.6555 12.7786 9.26873 12.7786H8.3841C8.00179 12.7786 7.63283 12.9298 7.36165 13.201C7.22829 13.3343 7.1216 13.4899 7.05047 13.6588C6.88154 13.5877 6.69484 13.5521 6.50812 13.5521C6.12581 13.5521 5.75685 13.7033 5.48567 13.9745L4.85889 14.6013C4.58772 14.8724 4.43657 15.2414 4.43657 15.6237C4.43657 15.8104 4.47213 15.9971 4.54326 16.1661C4.37433 16.2372 4.21874 16.3439 4.08538 16.4772C3.81421 16.7484 3.66306 17.1129 3.66306 17.4997V18.122L3.64096 18.1265Z" fill="#84828A"/>
<path fill-rule="evenodd" clip-rule="evenodd" d="M3.99414 18.3872C3.99414 18.6895 4.11862 18.9607 4.31421 19.1607C4.51426 19.3607 4.78543 19.4807 5.08769 19.4807H5.09658L5.08769 19.4896C4.87431 19.703 4.76763 19.9831 4.76763 20.2631C4.76763 20.5432 4.87432 20.8233 5.08769 21.0366L5.71448 21.6634C5.92786 21.8768 6.20793 21.9835 6.48796 21.9835C6.768 21.9835 7.04809 21.8768 7.26145 21.6634L7.27034 21.6545V21.6634C7.27034 21.9657 7.39481 22.2369 7.59041 22.4369C7.79045 22.6369 8.06162 22.7569 8.36389 22.7569H9.24852C9.55081 22.7569 9.82199 22.6325 10.022 22.4369C10.2221 22.2368 10.3421 21.9657 10.3421 21.6634V21.6545L10.351 21.6634C10.5643 21.8768 10.8444 21.9835 11.1245 21.9835C11.4045 21.9835 11.6846 21.8768 11.8979 21.6634L12.5247 21.0366C12.7381 20.8232 12.8448 20.5432 12.8448 20.2631C12.8448 19.9831 12.7381 19.703 12.5247 19.4896L12.5158 19.4807H12.5247C12.827 19.4807 13.0982 19.3563 13.2982 19.1607C13.4983 18.9606 13.6183 18.6895 13.6183 18.3872V17.5026C13.6183 17.2003 13.4938 16.9291 13.2982 16.7291C13.0982 16.529 12.827 16.409 12.5247 16.409H12.5158L12.5247 16.4001C12.7381 16.1867 12.8448 15.9067 12.8448 15.6266C12.8448 15.3466 12.7381 15.0665 12.5247 14.8532L11.8979 14.2264C11.6846 14.013 11.4045 13.9063 11.1245 13.9063C10.8444 13.9063 10.5643 14.013 10.351 14.2264L10.3421 14.2353V14.2264C10.3421 13.9241 10.2176 13.6529 10.022 13.4529C9.82196 13.2528 9.55079 13.1328 9.24852 13.1328H8.36389C8.0616 13.1328 7.79043 13.2573 7.59041 13.4529C7.39036 13.6529 7.27034 13.9241 7.27034 14.2264V14.2353L7.26145 14.2264C7.04807 14.013 6.768 13.9063 6.48796 13.9063C6.20793 13.9063 5.92783 14.013 5.71448 14.2264L5.08769 14.8532C4.87431 15.0665 4.76763 15.3466 4.76763 15.6266C4.76763 15.9067 4.87432 16.1868 5.08769 16.4001L5.09658 16.409H5.08769C4.7854 16.409 4.51423 16.5335 4.31421 16.7291C4.11417 16.9291 3.99414 17.2003 3.99414 17.5026V18.3872ZM10.1596 19.1296C9.81283 19.4763 9.33271 19.6897 8.80369 19.6897C8.27468 19.6897 7.79458 19.4763 7.4478 19.1296C7.10103 18.7828 6.88767 18.3027 6.88767 17.7737C6.88767 17.2447 7.10106 16.7646 7.4478 16.4178C7.79455 16.0711 8.27467 15.8577 8.80369 15.8577C9.3327 15.8577 9.8128 16.0711 10.1596 16.4178C10.5063 16.7645 10.7197 17.2447 10.7197 17.7737C10.7197 18.3027 10.5063 18.7828 10.1596 19.1296Z" fill="#84828A"/>
</svg>
