<svg width="16" height="15" viewBox="0 0 16 15" fill="none" xmlns="http://www.w3.org/2000/svg">
<mask id="path-1-inside-1_2400_23909" fill="white">
<path d="M15.5 9.76562C15.224 9.76562 15 9.9645 15 10.2096V13.317H1V10.2096C1 9.9645 0.776 9.76562 0.5 9.76562C0.224 9.76562 0 9.9645 0 10.2096V13.761C0 14.006 0.224 14.2049 0.5 14.2049H15.5C15.776 14.2049 16 14.006 16 13.761V10.2096C16 9.9645 15.776 9.76562 15.5 9.76562Z"/>
</mask>
<path d="M15 13.317V14.317H16V13.317H15ZM1 13.317H0V14.317H1V13.317ZM15.5 8.76562C14.7869 8.76562 14 9.30372 14 10.2096H16C16 10.4048 15.9086 10.5564 15.8104 10.6435C15.7141 10.729 15.6015 10.7656 15.5 10.7656V8.76562ZM14 10.2096V13.317H16V10.2096H14ZM15 12.317H1V14.317H15V12.317ZM2 13.317V10.2096H0V13.317H2ZM2 10.2096C2 9.30372 1.21315 8.76562 0.5 8.76562V10.7656C0.398467 10.7656 0.285903 10.729 0.18957 10.6435C0.0914486 10.5564 0 10.4048 0 10.2096H2ZM0.5 8.76562C-0.213147 8.76562 -1 9.30372 -1 10.2096H1C1 10.4048 0.908551 10.5564 0.81043 10.6435C0.714097 10.729 0.601533 10.7656 0.5 10.7656V8.76562ZM-1 10.2096V13.761H1V10.2096H-1ZM-1 13.761C-1 14.6668 -0.213147 15.2049 0.5 15.2049V13.2049C0.601533 13.2049 0.714097 13.2415 0.81043 13.327C0.908551 13.4141 1 13.5657 1 13.761H-1ZM0.5 15.2049H15.5V13.2049H0.5V15.2049ZM15.5 15.2049C16.2131 15.2049 17 14.6668 17 13.761H15C15 13.5657 15.0914 13.4141 15.1896 13.327C15.2859 13.2415 15.3985 13.2049 15.5 13.2049V15.2049ZM17 13.761V10.2096H15V13.761H17ZM17 10.2096C17 9.30372 16.2131 8.76562 15.5 8.76562V10.7656C15.3985 10.7656 15.2859 10.729 15.1896 10.6435C15.0914 10.5564 15 10.4048 15 10.2096H17Z" fill="#DE2128" mask="url(#path-1-inside-1_2400_23909)"/>
<path d="M7.99791 9.14175V10.1529C7.99649 10.153 7.99502 10.153 7.99351 10.153C7.99158 10.153 7.98971 10.1529 7.98791 10.1528V9.14175V0.500146C7.98948 0.500052 7.99115 0.5 7.99291 0.5C7.99466 0.5 7.99633 0.500052 7.99791 0.500146V9.14175ZM4.46648 7.20891L4.46651 7.20888L4.46648 7.20891Z" stroke="#DE2128"/>
</svg>
