<svg width="10" height="7" viewBox="0 0 10 7" fill="none" xmlns="http://www.w3.org/2000/svg">
<path fill-rule="evenodd" clip-rule="evenodd" d="M0.740064 0.878686C0.91509 0.703713 1.15244 0.605418 1.39993 0.605418C1.64742 0.605418 1.88477 0.703713 2.0598 0.878686L5.13326 3.95215L8.20673 0.878686C8.29283 0.789543 8.39582 0.718439 8.50969 0.669524C8.62356 0.620609 8.74603 0.594862 8.86996 0.593785C8.99388 0.592708 9.11678 0.616323 9.23149 0.663252C9.34619 0.710181 9.4504 0.779484 9.53803 0.867117C9.62567 0.95475 9.69497 1.05896 9.7419 1.17366C9.78883 1.28837 9.81244 1.41127 9.81137 1.53519C9.81029 1.65912 9.78454 1.78159 9.73563 1.89546C9.68671 2.00933 9.61561 2.11232 9.52646 2.19842L5.79313 5.93175C5.6181 6.10673 5.38075 6.20502 5.13326 6.20502C4.88578 6.20502 4.64842 6.10673 4.4734 5.93175L0.740064 2.19842C0.565091 2.02339 0.466797 1.78604 0.466797 1.53855C0.466797 1.29107 0.565091 1.05371 0.740064 0.878686Z" fill="white"/>
</svg>
