<svg width="15" height="3" viewBox="0 0 15 3" fill="none" xmlns="http://www.w3.org/2000/svg">
<path d="M1.22698 2.48282H13.4313C13.5943 2.48282 13.7558 2.45071 13.9064 2.38832C14.057 2.32592 14.1938 2.23447 14.3091 2.11919C14.4244 2.0039 14.5158 1.86704 14.5782 1.71642C14.6406 1.56579 14.6726 1.40436 14.6726 1.24133C14.6726 1.07831 14.6406 0.916881 14.5782 0.766266C14.5158 0.615651 14.4244 0.478799 14.3091 0.363527C14.1938 0.248254 14.057 0.15682 13.9064 0.0944453C13.7557 0.0320707 13.5943 -2.22969e-05 13.4313 1.16224e-08H1.22698C0.900249 0.00382165 0.588199 0.136296 0.358507 0.36869C0.128815 0.601085 0 0.914662 0 1.24141C0 1.56816 0.128815 1.88174 0.358507 2.11413C0.588199 2.34653 0.900249 2.479 1.22698 2.48282Z" fill="white"/>
</svg>
