<svg width="16" height="14" viewBox="0 0 16 14" fill="none" xmlns="http://www.w3.org/2000/svg">
<path d="M15.0383 5.87844C14.9729 5.86782 14.9066 5.86291 14.8403 5.86377H3.55262L3.79875 5.74929C4.03933 5.63541 4.25821 5.48045 4.44556 5.29138L7.6109 2.12603C8.02779 1.72807 8.09783 1.08788 7.7769 0.60918C7.40338 0.0990683 6.68706 -0.0116902 6.17691 0.361834C6.13569 0.392024 6.09654 0.424939 6.05971 0.460357L0.335755 6.18432C-0.111572 6.63114 -0.111966 7.35597 0.334861 7.8033L0.335755 7.8042L6.05971 13.5282C6.5074 13.9746 7.23223 13.9736 7.6787 13.5259C7.71383 13.4907 7.74663 13.4532 7.7769 13.4137C8.09783 12.935 8.02779 12.2948 7.6109 11.8968L4.45128 8.72575C4.28332 8.55761 4.09021 8.41664 3.87888 8.3079L3.53545 8.15336H14.7773C15.3621 8.17507 15.8752 7.76656 15.9851 7.19173C16.0863 6.56764 15.6624 5.97968 15.0383 5.87844Z" fill="#DE2128"/>
</svg>
