<svg width="904" height="253" viewBox="0 0 904 253" fill="none" xmlns="http://www.w3.org/2000/svg">
<rect x="0.1" y="0.1" width="112.8" height="54.8" stroke="#DE2128" stroke-width="0.2"/>
<rect x="113.1" y="0.1" width="112.8" height="54.8" stroke="#DE2128" stroke-width="0.2"/>
<rect x="226.1" y="0.1" width="112.8" height="54.8" stroke="#DE2128" stroke-width="0.2"/>
<rect x="339.1" y="0.1" width="112.8" height="54.8" stroke="#DE2128" stroke-width="0.2"/>
<rect x="452.1" y="0.1" width="112.8" height="54.8" stroke="#DE2128" stroke-width="0.2"/>
<rect x="565.1" y="0.1" width="112.8" height="54.8" stroke="#DE2128" stroke-width="0.2"/>
<rect x="678.1" y="0.1" width="112.8" height="54.8" stroke="#DE2128" stroke-width="0.2"/>
<rect x="791.1" y="0.1" width="112.8" height="54.8" stroke="#DE2128" stroke-width="0.2"/>
<path d="M851.868 27.5455L852.869 29.4524L853.896 27.5455H855.447L853.867 30.2727L855.49 33H853.945L852.869 31.1143L851.811 33H850.249L851.868 30.2727L850.305 27.5455H851.868Z" fill="#333333" fill-opacity="0.9"/>
<path d="M849.65 19L849.45 19.5248L844.525 32.3752L842.125 27.4496L841.9 27H839V28.6H840.9L843.8 34.5504L844.025 35H845.225L845.425 34.4752L850.75 20.6H855V19H849.65Z" fill="#464646"/>
<rect x="0.1" y="0.1" width="112.8" height="54.8" stroke="#DE2128" stroke-width="0.2"/>
<path d="M55.7003 35L61.4148 23.6989V23.603H54.8054V21.9091H63.4602V23.6605L57.7649 35H55.7003Z" fill="#35363A"/>
<path d="M172.683 35.179C171.766 35.179 170.957 35.0213 170.254 34.706C169.555 34.3906 169.007 33.956 168.611 33.402C168.214 32.848 168.018 32.2173 168.023 31.5099C168.018 30.956 168.131 30.4467 168.362 29.9822C168.596 29.5135 168.913 29.1236 169.314 28.8125C169.714 28.4972 170.162 28.2969 170.656 28.2116V28.1349C170.004 27.9773 169.482 27.6278 169.09 27.0866C168.698 26.5455 168.504 25.9233 168.509 25.2202C168.504 24.5511 168.681 23.9545 169.039 23.4304C169.401 22.902 169.898 22.4865 170.528 22.1839C171.159 21.8814 171.877 21.7301 172.683 21.7301C173.479 21.7301 174.191 21.8835 174.817 22.1903C175.448 22.4929 175.945 22.9084 176.307 23.4368C176.669 23.9609 176.852 24.5554 176.857 25.2202C176.852 25.9233 176.652 26.5455 176.256 27.0866C175.859 27.6278 175.344 27.9773 174.709 28.1349V28.2116C175.199 28.2969 175.64 28.4972 176.032 28.8125C176.428 29.1236 176.744 29.5135 176.978 29.9822C177.217 30.4467 177.338 30.956 177.342 31.5099C177.338 32.2173 177.138 32.848 176.741 33.402C176.345 33.956 175.795 34.3906 175.092 34.706C174.393 35.0213 173.59 35.179 172.683 35.179ZM172.683 33.5618C173.224 33.5618 173.692 33.4723 174.089 33.2933C174.485 33.1101 174.792 32.8565 175.009 32.5327C175.227 32.2045 175.337 31.821 175.342 31.3821C175.337 30.9261 175.218 30.5234 174.984 30.174C174.754 29.8246 174.44 29.5497 174.044 29.3494C173.648 29.1491 173.194 29.049 172.683 29.049C172.167 29.049 171.709 29.1491 171.308 29.3494C170.908 29.5497 170.592 29.8246 170.362 30.174C170.132 30.5234 170.019 30.9261 170.023 31.3821C170.019 31.821 170.124 32.2045 170.337 32.5327C170.554 32.8565 170.863 33.1101 171.263 33.2933C171.664 33.4723 172.137 33.5618 172.683 33.5618ZM172.683 27.4702C173.117 27.4702 173.503 27.3828 173.839 27.2081C174.176 27.0334 174.44 26.7905 174.632 26.4794C174.828 26.1683 174.928 25.804 174.933 25.3864C174.928 24.9773 174.83 24.6193 174.638 24.3125C174.451 24.0057 174.189 23.7692 173.852 23.603C173.516 23.4325 173.126 23.3473 172.683 23.3473C172.231 23.3473 171.835 23.4325 171.494 23.603C171.157 23.7692 170.895 24.0057 170.707 24.3125C170.52 24.6193 170.428 24.9773 170.433 25.3864C170.428 25.804 170.522 26.1683 170.714 26.4794C170.906 26.7905 171.17 27.0334 171.506 27.2081C171.847 27.3828 172.239 27.4702 172.683 27.4702Z" fill="#35363A"/>
<path d="M285.612 21.7301C286.196 21.7344 286.771 21.8409 287.338 22.0497C287.905 22.2585 288.416 22.5994 288.872 23.0724C289.332 23.5455 289.699 24.1847 289.972 24.9901C290.249 25.7912 290.389 26.7884 290.393 27.9815C290.393 29.1278 290.278 30.1484 290.048 31.0433C289.818 31.9339 289.488 32.6861 289.058 33.2997C288.631 33.9134 288.114 34.38 287.504 34.6996C286.895 35.0192 286.209 35.179 285.446 35.179C284.666 35.179 283.974 35.0256 283.369 34.7188C282.763 34.4119 282.271 33.9879 281.892 33.4467C281.513 32.9013 281.276 32.2749 281.183 31.5675H283.132C283.26 32.13 283.52 32.5859 283.912 32.9354C284.308 33.2805 284.82 33.4531 285.446 33.4531C286.405 33.4531 287.153 33.0355 287.69 32.2003C288.227 31.3608 288.497 30.1889 288.501 28.6847H288.399C288.178 29.0511 287.901 29.3665 287.568 29.6307C287.24 29.8949 286.871 30.0994 286.462 30.2443C286.053 30.3892 285.616 30.4616 285.152 30.4616C284.398 30.4616 283.712 30.2763 283.094 29.9055C282.476 29.5348 281.984 29.0256 281.617 28.3778C281.251 27.7301 281.067 26.9908 281.067 26.1598C281.067 25.3331 281.255 24.5831 281.63 23.9098C282.009 23.2365 282.538 22.7038 283.215 22.3118C283.897 21.9155 284.696 21.7216 285.612 21.7301ZM285.619 23.392C285.12 23.392 284.67 23.5156 284.27 23.7628C283.874 24.0057 283.56 24.3359 283.33 24.7536C283.1 25.1669 282.985 25.6271 282.985 26.1342C282.985 26.6413 283.096 27.1016 283.317 27.5149C283.543 27.924 283.85 28.25 284.238 28.4929C284.63 28.7315 285.077 28.8509 285.58 28.8509C285.955 28.8509 286.305 28.7784 286.629 28.6335C286.952 28.4886 287.236 28.2884 287.479 28.0327C287.722 27.7727 287.911 27.4787 288.048 27.1506C288.184 26.8224 288.252 26.4773 288.252 26.1151C288.252 25.6335 288.137 25.1861 287.907 24.7727C287.681 24.3594 287.37 24.027 286.974 23.7756C286.577 23.5199 286.126 23.392 285.619 23.392Z" fill="#35363A"/>
<path d="M505.793 25.1818L507.96 29.0043L510.146 25.1818H512.237L509.175 30.0909L512.262 35H510.172L507.96 31.331L505.755 35H503.658L506.714 30.0909L503.697 25.1818H505.793Z" fill="#35363A"/>
<path d="M618.493 38.6818C618.207 38.6818 617.947 38.6584 617.713 38.6115C617.479 38.5689 617.304 38.522 617.189 38.4709L617.649 36.9048C617.999 36.9986 618.31 37.0391 618.582 37.0263C618.855 37.0135 619.096 36.9112 619.305 36.7195C619.518 36.5277 619.705 36.2145 619.867 35.7798L620.104 35.1278L616.511 25.1818H618.557L621.043 32.8011H621.146L623.632 25.1818H625.684L621.638 36.3104C621.45 36.8217 621.212 37.2543 620.922 37.608C620.632 37.9659 620.287 38.2344 619.886 38.4134C619.486 38.5923 619.021 38.6818 618.493 38.6818Z" fill="#35363A"/>
<path d="M54.9844 87.4432V85.8452L60.6413 76.9091H61.9006V79.2614H61.1016L57.0554 85.6662V85.7685H64.8089V87.4432H54.9844ZM61.1911 90V86.9574L61.2038 86.2287V76.9091H63.0767V90H61.1911Z" fill="#35363A"/>
<path d="M172.58 90.179C171.779 90.179 171.059 90.0256 170.42 89.7188C169.785 89.4077 169.278 88.9815 168.898 88.4403C168.519 87.8991 168.317 87.2812 168.291 86.5866H170.209C170.256 87.1491 170.505 87.6115 170.957 87.9737C171.408 88.3359 171.95 88.517 172.58 88.517C173.083 88.517 173.528 88.402 173.916 88.1719C174.308 87.9375 174.615 87.6158 174.837 87.2067C175.063 86.7976 175.175 86.331 175.175 85.8068C175.175 85.2741 175.06 84.799 174.83 84.3814C174.6 83.9638 174.283 83.6357 173.878 83.397C173.477 83.1584 173.017 83.0369 172.497 83.0327C172.101 83.0327 171.702 83.1009 171.302 83.2372C170.901 83.3736 170.577 83.5526 170.33 83.7741L168.521 83.5057L169.256 76.9091H176.454V78.603H170.899L170.484 82.2656H170.56C170.816 82.0185 171.155 81.8118 171.577 81.6456C172.003 81.4794 172.459 81.3963 172.945 81.3963C173.741 81.3963 174.451 81.5859 175.073 81.9652C175.7 82.3445 176.192 82.8622 176.55 83.5185C176.912 84.1705 177.091 84.9205 177.087 85.7685C177.091 86.6165 176.899 87.3729 176.511 88.0376C176.128 88.7024 175.595 89.2266 174.913 89.6101C174.236 89.9893 173.458 90.179 172.58 90.179Z" fill="#35363A"/>
<path d="M285.83 90.179C285.246 90.1705 284.67 90.0639 284.104 89.8594C283.541 89.6548 283.03 89.3139 282.57 88.8366C282.109 88.3594 281.741 87.718 281.464 86.9126C281.191 86.1072 281.055 85.1016 281.055 83.8956C281.055 82.7536 281.168 81.7393 281.393 80.853C281.624 79.9666 281.954 79.2188 282.384 78.6094C282.815 77.9957 283.335 77.5291 283.944 77.2095C284.553 76.8899 285.237 76.7301 285.996 76.7301C286.776 76.7301 287.468 76.8835 288.073 77.1903C288.678 77.4972 289.168 77.9212 289.543 78.4624C289.923 79.0036 290.163 79.6193 290.266 80.3097H288.316C288.184 79.7642 287.922 79.3189 287.53 78.9737C287.138 78.6286 286.626 78.456 285.996 78.456C285.037 78.456 284.289 78.8736 283.752 79.7088C283.219 80.544 282.951 81.7053 282.947 83.1925H283.043C283.268 82.8217 283.545 82.5064 283.874 82.2464C284.206 81.9822 284.577 81.7798 284.986 81.6392C285.399 81.4943 285.834 81.4219 286.29 81.4219C287.048 81.4219 287.734 81.6072 288.348 81.978C288.966 82.3445 289.458 82.8516 289.825 83.4993C290.191 84.147 290.374 84.8885 290.374 85.7237C290.374 86.5589 290.185 87.3153 289.805 87.9929C289.43 88.6705 288.902 89.2074 288.22 89.6037C287.538 89.9957 286.741 90.1875 285.83 90.179ZM285.823 88.517C286.326 88.517 286.776 88.3935 287.172 88.1463C287.568 87.8991 287.881 87.5668 288.112 87.1491C288.342 86.7315 288.457 86.2649 288.457 85.7493C288.457 85.2464 288.344 84.7884 288.118 84.375C287.896 83.9616 287.589 83.6335 287.197 83.3906C286.81 83.1477 286.366 83.0263 285.868 83.0263C285.489 83.0263 285.137 83.0987 284.813 83.2436C284.494 83.3885 284.212 83.5888 283.969 83.8445C283.727 84.1001 283.535 84.3942 283.394 84.7266C283.258 85.0547 283.19 85.402 283.19 85.7685C283.19 86.2585 283.303 86.7124 283.528 87.13C283.759 87.5476 284.072 87.8842 284.468 88.1399C284.869 88.3913 285.32 88.517 285.823 88.517Z" fill="#35363A"/>
<path d="M60.2259 131.909V145H58.2443V133.891H58.1676L55.0355 135.936V134.044L58.3018 131.909H60.2259Z" fill="#35363A"/>
<path d="M168.259 145V143.568L172.689 138.979C173.162 138.48 173.552 138.043 173.859 137.668C174.17 137.289 174.402 136.929 174.555 136.588C174.709 136.247 174.786 135.885 174.786 135.501C174.786 135.067 174.683 134.692 174.479 134.376C174.274 134.057 173.995 133.812 173.641 133.641C173.288 133.467 172.889 133.379 172.446 133.379C171.977 133.379 171.568 133.475 171.219 133.667C170.869 133.859 170.601 134.129 170.413 134.479C170.226 134.828 170.132 135.237 170.132 135.706H168.246C168.246 134.909 168.43 134.212 168.796 133.616C169.163 133.019 169.665 132.557 170.305 132.229C170.944 131.896 171.67 131.73 172.484 131.73C173.307 131.73 174.031 131.894 174.658 132.222C175.288 132.546 175.781 132.989 176.134 133.552C176.488 134.11 176.665 134.741 176.665 135.444C176.665 135.93 176.573 136.405 176.39 136.869C176.211 137.334 175.898 137.852 175.45 138.423C175.003 138.989 174.381 139.678 173.584 140.487L170.982 143.21V143.306H176.876V145H168.259Z" fill="#35363A"/>
<path d="M285.817 145.179C284.939 145.179 284.155 145.028 283.464 144.725C282.778 144.423 282.235 144.003 281.835 143.466C281.438 142.925 281.225 142.298 281.195 141.587H283.202C283.228 141.974 283.358 142.311 283.592 142.597C283.831 142.878 284.142 143.095 284.526 143.249C284.909 143.402 285.335 143.479 285.804 143.479C286.32 143.479 286.776 143.389 287.172 143.21C287.572 143.031 287.886 142.782 288.112 142.462C288.337 142.138 288.45 141.766 288.45 141.344C288.45 140.905 288.337 140.519 288.112 140.187C287.89 139.85 287.564 139.586 287.134 139.394C286.707 139.202 286.192 139.107 285.587 139.107H284.481V137.496H285.587C286.072 137.496 286.499 137.408 286.865 137.234C287.236 137.059 287.526 136.816 287.734 136.505C287.943 136.19 288.048 135.821 288.048 135.399C288.048 134.994 287.956 134.643 287.773 134.344C287.594 134.042 287.338 133.805 287.006 133.635C286.678 133.464 286.29 133.379 285.842 133.379C285.416 133.379 285.018 133.458 284.647 133.616C284.281 133.769 283.982 133.991 283.752 134.281C283.522 134.566 283.398 134.909 283.381 135.31H281.47C281.491 134.602 281.7 133.98 282.097 133.443C282.497 132.906 283.026 132.487 283.682 132.184C284.338 131.881 285.067 131.73 285.868 131.73C286.707 131.73 287.432 131.894 288.041 132.222C288.655 132.546 289.128 132.979 289.46 133.52C289.797 134.061 289.963 134.653 289.959 135.297C289.963 136.03 289.759 136.652 289.345 137.163C288.936 137.675 288.391 138.018 287.709 138.192V138.295C288.578 138.427 289.251 138.772 289.729 139.33C290.21 139.888 290.449 140.581 290.445 141.408C290.449 142.128 290.249 142.773 289.844 143.344C289.443 143.915 288.896 144.365 288.201 144.693C287.506 145.017 286.712 145.179 285.817 145.179Z" fill="#35363A"/>
<path d="M59.8168 200.217C58.8068 200.213 57.9439 199.947 57.228 199.418C56.5121 198.89 55.9645 198.121 55.5852 197.111C55.206 196.101 55.0163 194.884 55.0163 193.461C55.0163 192.042 55.206 190.83 55.5852 189.824C55.9688 188.818 56.5185 188.051 57.2344 187.523C57.9545 186.994 58.8153 186.73 59.8168 186.73C60.8182 186.73 61.6768 186.996 62.3928 187.529C63.1087 188.058 63.6563 188.825 64.0355 189.83C64.419 190.832 64.6108 192.042 64.6108 193.461C64.6108 194.888 64.4212 196.107 64.0419 197.117C63.6626 198.123 63.1151 198.892 62.3991 199.425C61.6832 199.953 60.8224 200.217 59.8168 200.217ZM59.8168 198.511C60.7031 198.511 61.3956 198.078 61.8942 197.213C62.397 196.348 62.6484 195.097 62.6484 193.461C62.6484 192.374 62.5334 191.456 62.3033 190.706C62.0774 189.952 61.7514 189.381 61.3253 188.993C60.9034 188.601 60.4006 188.405 59.8168 188.405C58.9347 188.405 58.2422 188.839 57.7393 189.709C57.2365 190.578 56.983 191.829 56.9787 193.461C56.9787 194.552 57.0916 195.474 57.3175 196.229C57.5476 196.979 57.8736 197.548 58.2955 197.935C58.7173 198.319 59.2244 198.511 59.8168 198.511Z" fill="#35363A"/>
<path d="M169.544 200.121C169.195 200.121 168.894 199.998 168.643 199.751C168.391 199.499 168.266 199.197 168.266 198.843C168.266 198.494 168.391 198.195 168.643 197.948C168.894 197.697 169.195 197.571 169.544 197.571C169.893 197.571 170.194 197.697 170.445 197.948C170.697 198.195 170.822 198.494 170.822 198.843C170.822 199.077 170.763 199.293 170.643 199.489C170.528 199.68 170.375 199.834 170.183 199.949C169.991 200.064 169.778 200.121 169.544 200.121Z" fill="#35363A"/>
<path d="M283.771 198.21L283.675 198.907C283.612 199.418 283.503 199.951 283.349 200.505C283.2 201.063 283.045 201.581 282.883 202.058C282.725 202.536 282.595 202.915 282.493 203.196H281.138C281.193 202.932 281.27 202.574 281.368 202.122C281.466 201.675 281.562 201.174 281.656 200.62C281.749 200.066 281.82 199.501 281.866 198.926L281.93 198.21H283.771Z" fill="#35363A"/>
<path d="M57 253V243L62 248L57 253Z" fill="#35363A"/>
<path d="M172 253V243L167 248L172 253Z" fill="#35363A"/>
</svg>
