<svg width="18" height="22" viewBox="0 0 18 22" fill="none" xmlns="http://www.w3.org/2000/svg">
<path d="M17.4233 16.7135L12 9.25625V2H13.5V0.5H4.50002V2H6.00002V9.25625L0.576771 16.7135C0.249646 17.1631 0.0532799 17.6944 0.00940044 18.2487C-0.0344791 18.8029 0.0758391 19.3585 0.328148 19.854C0.580457 20.3495 0.96492 20.7655 1.43899 21.056C1.91307 21.3465 2.45827 21.5001 3.01427 21.5H14.985C15.541 21.5001 16.0862 21.3465 16.5603 21.056C17.0344 20.7655 17.4188 20.3495 17.6711 19.854C17.9235 19.3585 18.0338 18.8029 17.9899 18.2487C17.946 17.6944 17.7496 17.1631 17.4225 16.7135H17.4233ZM7.50002 9.74375V2H10.5V9.74375L12.5048 12.5H5.49527L7.50002 9.74375ZM14.9858 20H3.01502C2.73587 19.9997 2.46222 19.9223 2.22429 19.7763C1.98635 19.6303 1.79339 19.4214 1.66669 19.1726C1.53999 18.9239 1.48448 18.645 1.50628 18.3666C1.52809 18.0883 1.62637 17.8215 1.79027 17.5955L4.40477 14H13.5953L16.2105 17.5955C16.3744 17.8215 16.4727 18.0883 16.4945 18.3666C16.5163 18.645 16.4608 18.9239 16.3341 19.1726C16.2074 19.4214 16.0144 19.6303 15.7765 19.7763C15.5386 19.9223 15.2649 19.9997 14.9858 20Z" fill="#DE2128"/>
<path d="M12.9998 13H4.49979C3.66646 14 1.79979 16.4 0.999793 18C0.199793 19.6 1.66646 20.3333 2.49979 20.5H14.9998C17.3998 20.5 17.3331 18.5 16.9998 17.5L13.4998 13H12.9998Z" fill="#DE2128"/>
</svg>
