<svg width="20" height="21" viewBox="0 0 20 21" fill="none" xmlns="http://www.w3.org/2000/svg">
<path d="M1.19443 18.4185L0.916645 18.0028L1.19443 18.4185C1.35865 18.3088 1.55169 18.2502 1.74918 18.25C2.01431 18.251 2.26831 18.3567 2.4558 18.5442C2.64327 18.7317 2.74902 18.9857 2.75 19.2508C2.74985 19.4483 2.69121 19.6413 2.58147 19.8056C2.47159 19.97 2.31541 20.0982 2.13268 20.1739L2.32403 20.6358L2.13268 20.1739C1.94996 20.2496 1.74889 20.2694 1.55491 20.2308C1.36093 20.1922 1.18275 20.097 1.04289 19.9571L0.68934 20.3107L1.04289 19.9571C0.903042 19.8173 0.807801 19.6391 0.769215 19.4451C0.73063 19.2511 0.750433 19.05 0.826121 18.8673C0.901809 18.6846 1.02998 18.5284 1.19443 18.4185ZM17.5429 19.9571L17.1893 20.3107L17.5429 19.9571C17.403 19.8173 17.3078 19.6391 17.2692 19.4451C17.2306 19.2511 17.2504 19.05 17.3261 18.8673C17.4018 18.6846 17.53 18.5284 17.6944 18.4185C17.8587 18.3088 18.0517 18.2502 18.2492 18.25C18.5143 18.251 18.7683 18.3567 18.9558 18.5442C19.1433 18.7317 19.249 18.9857 19.25 19.2508C19.2498 19.4483 19.1912 19.6413 19.0815 19.8056C18.9716 19.97 18.8154 20.0982 18.6327 20.1739C18.45 20.2496 18.2489 20.2694 18.0549 20.2308C17.8609 20.1922 17.6827 20.097 17.5429 19.9571ZM10.3827 20.1739L10.574 20.6358L10.3827 20.1739C10.2 20.2496 9.99889 20.2694 9.80491 20.2308C9.61093 20.1922 9.43275 20.097 9.29289 19.9571C9.15304 19.8173 9.0578 19.6391 9.01922 19.4451C8.98063 19.2511 9.00043 19.05 9.07612 18.8673C9.15181 18.6846 9.27998 18.5284 9.44443 18.4185L9.16665 18.0028L9.44443 18.4185C9.60865 18.3088 9.80169 18.2502 9.99918 18.25C10.2643 18.251 10.5183 18.3567 10.7058 18.5442C10.8933 18.7317 10.999 18.9857 11 19.2508C10.9998 19.4483 10.9412 19.6413 10.8315 19.8056L11.2472 20.0834L10.8315 19.8056C10.7216 19.97 10.5654 20.0982 10.3827 20.1739ZM18.5 15.75H18L18 7.25L18 7.24851C17.9984 6.71896 17.7874 6.21155 17.4129 5.8371C17.0385 5.46265 16.531 5.25158 16.0015 5.25H16H15V4.75H15.9993C16.6618 4.75218 17.2966 5.01634 17.7651 5.48486C18.2337 5.9534 18.4979 6.58827 18.5 7.25088C18.5 7.25108 18.5 7.25129 18.5 7.25149L18.5 15.75ZM4.00073 4.75H5V5.25L4 5.25L3.99851 5.25C3.46896 5.25158 2.96155 5.46265 2.5871 5.8371C2.21265 6.21155 2.00158 6.71896 2 7.24851V7.25V15.75H1.5V7.25077C1.50217 6.5882 1.76633 5.95338 2.23486 5.48486C2.70337 5.01634 3.33818 4.75218 4.00073 4.75ZM11.2858 5.58621L10.2326 5.03287L10 4.91069L9.76745 5.03287L8.71425 5.58621L8.91554 4.41413L8.96001 4.15515L8.77194 3.97163L7.92004 3.14039L9.09652 2.97036L9.35692 2.93272L9.47337 2.69679L10 1.62975L10.5266 2.69679L10.6429 2.93243L10.903 2.97029L12.08 3.14161L11.2283 3.97138L11.04 4.15492L11.0845 4.41413L11.2858 5.58621ZM9.75 8.5H10.25V15.75H9.75V8.5Z" fill="#DE2128" stroke="#DE2128"/>
</svg>
