<svg width="17" height="20" viewBox="0 0 17 20" fill="none" xmlns="http://www.w3.org/2000/svg">
<path fill-rule="evenodd" clip-rule="evenodd" d="M2.3725 12.29L5.0825 15V19C5.0825 19.55 5.5325 20 6.0825 20H10.0825C10.6325 20 11.0825 19.55 11.0825 19V15L13.7925 12.29C13.9825 12.1 14.0825 11.85 14.0825 11.58V8C14.0825 7.45 13.6325 7 13.0825 7H3.0825C2.5325 7 2.0825 7.45 2.0825 8V11.59C2.0825 11.85 2.1925 12.11 2.3725 12.29ZM8.0825 0C8.6325 0 9.0825 0.45 9.0825 1V2C9.0825 2.55 8.6325 3 8.0825 3C7.5325 3 7.0825 2.55 7.0825 2V1C7.0825 0.45 7.5325 0 8.0825 0ZM0.2925 3.17C0.6825 2.78 1.3125 2.78 1.7125 3.17L2.4225 3.88C2.8125 4.27 2.8125 4.9 2.4225 5.29C2.0325 5.68 1.4025 5.68 1.0125 5.29L0.2925 4.58C-0.0975 4.19 -0.0975 3.56 0.2925 3.17ZM13.7525 3.88L14.4625 3.17C14.8525 2.78 15.4825 2.78 15.8725 3.17C16.2625 3.56 16.2625 4.19 15.8725 4.58L15.1625 5.29C14.7725 5.68 14.1425 5.68 13.7525 5.29C13.3625 4.9 13.3625 4.27 13.7525 3.88Z" fill="#DE2128"/>
</svg>
