<svg width="18" height="20" viewBox="0 0 18 20" fill="none" xmlns="http://www.w3.org/2000/svg">
<path d="M9.5 2V2.5H10H10.5C10.7652 2.5 11.0196 2.60536 11.2071 2.79289C11.3946 2.98043 11.5 3.23478 11.5 3.5V6.79289L11.2064 7.08645L10.9351 7.35776L11.127 7.69004L12.767 10.53L13.0898 11.089L13.5503 10.6368C14.6404 9.56633 15.3577 8.11927 15.481 6.5H16.4837C16.3483 8.56681 15.3793 10.4051 13.903 11.6818L13.5904 11.9521L13.797 12.31L16.8778 17.6474L16.9429 18.7595L16.0035 18.1467L12.9933 12.9204L12.758 12.512L12.3364 12.7228C11.3456 13.2182 10.2022 13.5 9 13.5C7.79784 13.5 6.65437 13.2182 5.66361 12.7228L5.242 12.512L5.00673 12.9204L1.9965 18.1467L1.0571 18.7595L1.12222 17.6475L6.87298 7.69006L7.06488 7.35778L6.79355 7.08645L6.5 6.79289V3.5C6.5 3.23478 6.60536 2.98043 6.79289 2.79289C6.98043 2.60536 7.23478 2.5 7.5 2.5H8H8.5V2V0.5H9.5V2ZM6.00694 11.1801L5.73606 11.6495L6.22571 11.8818C7.07307 12.2837 8.01631 12.5 9 12.5C9.98369 12.5 10.9269 12.2837 11.7743 11.8818L12.2639 11.6495L11.9931 11.1801L10.5331 8.65009L10.3887 8.4H10.1H10.09H9.88768L9.74229 8.5407C9.31614 8.9531 8.68386 8.9531 8.25771 8.5407L8.11232 8.4H7.91H7.9H7.61126L7.46694 8.65009L6.00694 11.1801ZM9 3.5C8.60217 3.5 8.22064 3.65804 7.93934 3.93934C7.65804 4.22064 7.5 4.60218 7.5 5C7.5 5.39782 7.65804 5.77936 7.93934 6.06066C8.22064 6.34196 8.60217 6.5 9 6.5C9.39783 6.5 9.77936 6.34196 10.0607 6.06066C10.342 5.77936 10.5 5.39782 10.5 5C10.5 4.60218 10.342 4.22064 10.0607 3.93934C9.77936 3.65804 9.39783 3.5 9 3.5Z" fill="#DE2128" stroke="#DE2128"/>
</svg>
