<svg width="20" height="16" viewBox="0 0 20 16" fill="none" xmlns="http://www.w3.org/2000/svg">
<path d="M9.51783 12.5L9.42654 12.1155C9.28352 11.5131 8.94151 10.9766 8.4558 10.5927C7.97011 10.2089 7.36912 10 6.75003 10L9.51783 12.5ZM9.51783 12.5H9.91302M9.51783 12.5H9.91302M9.91302 12.5H19.2499H9.91302ZM9.51787 13H9.91302H19.2329L19.2962 12.9957C19.3541 12.9847 19.4064 12.9537 19.4437 12.9078C19.4837 12.8586 19.5035 12.7962 19.4992 12.733C19.4949 12.6698 19.4667 12.6106 19.4205 12.5673C19.3742 12.5241 19.3133 12.5001 19.25 12.5L9.51787 13ZM9.51787 13L9.42655 13.3845M9.51787 13L9.42655 13.3845M9.42655 13.3845C9.28349 13.9868 8.94145 14.5232 8.45575 14.9071C7.97005 15.2909 7.36908 15.4997 6.75002 15.4997C6.13095 15.4997 5.52998 15.2909 5.04428 14.9071C4.55858 14.5232 4.21654 13.9868 4.07348 13.3845L3.98216 13M9.42655 13.3845L3.98216 13M3.98216 13H3.58702M3.98216 13H3.58702M3.58702 13H0.750169H3.58702ZM3.9822 12.5H3.58702H0.767156L0.703837 12.5043C0.645961 12.5153 0.59365 12.5463 0.556312 12.5922C0.516341 12.6414 0.496509 12.7038 0.500827 12.767C0.505144 12.8302 0.533287 12.8894 0.579572 12.9327C0.625818 12.9759 0.68673 12.9999 0.750015 13L3.9822 12.5ZM3.9822 12.5L4.07349 12.1155M3.9822 12.5L4.07349 12.1155M4.07349 12.1155C4.21651 11.5131 4.55852 10.9766 5.04423 10.5927M4.07349 12.1155L5.04423 10.5927M16.0178 3L15.9265 2.6155C15.7835 2.01315 15.4415 1.47664 14.9558 1.09275C14.4701 0.708858 13.8691 0.500018 13.25 0.5L16.0178 3ZM16.0178 3H16.413M16.0178 3H16.413M16.413 3H19.2499H16.413ZM16.0179 3.5H16.413H19.2329L19.2962 3.49565C19.3541 3.48472 19.4064 3.45366 19.4437 3.40777C19.4837 3.35863 19.5035 3.29615 19.4992 3.23296C19.4949 3.16976 19.4667 3.11057 19.4205 3.06732C19.3742 3.02412 19.3133 3.00006 19.25 3L16.0179 3.5ZM16.0179 3.5L15.9265 3.88445M16.0179 3.5L15.9265 3.88445M15.9265 3.88445C15.7835 4.48676 15.4415 5.02321 14.9558 5.40706C14.4701 5.79091 13.8691 5.99971 13.25 5.99971C12.6309 5.99971 12.03 5.79091 11.5443 5.40706C11.0586 5.02321 10.7165 4.48676 10.5735 3.88445L10.4822 3.5M15.9265 3.88445L10.4822 3.5M10.4822 3.5H10.087M10.4822 3.5H10.087M10.087 3.5H0.750169H10.087ZM10.4822 3H10.087H0.767152L0.703837 3.00435C0.645961 3.01528 0.59365 3.04634 0.556313 3.09223C0.51634 3.14137 0.496509 3.20385 0.500827 3.26704C0.505144 3.33023 0.533288 3.38943 0.579571 3.43268C0.625818 3.47588 0.686729 3.49994 0.750015 3.5L10.4822 3ZM10.4822 3L10.5735 2.6155M10.4822 3L10.5735 2.6155M10.5735 2.6155C10.7165 2.01315 11.0585 1.47664 11.5442 1.09275M10.5735 2.6155L11.5442 1.09275M5.04423 10.5927C5.52992 10.2089 6.13091 10 6.75 10L5.04423 10.5927ZM11.5442 1.09275C12.0299 0.708858 12.6309 0.500018 13.25 0.5L11.5442 1.09275Z" fill="#DE2128" stroke="#DE2128"/>
</svg>
