<svg width="17" height="17" viewBox="0 0 17 17" fill="none" xmlns="http://www.w3.org/2000/svg">
<path d="M16.0922 8.71284V8.53855C16.0922 7.49994 15.2472 6.65505 14.2087 6.65505C13.9741 6.65505 13.7496 6.69849 13.5423 6.77718C13.366 5.92023 12.6058 5.27381 11.6973 5.27381C11.4506 5.27381 11.2152 5.32194 10.9991 5.40859C10.7712 4.61768 10.0142 4.01814 9.14415 4.01814C8.90992 4.01814 8.68407 4.06343 8.47446 4.14505V1.8835C8.47446 0.844898 7.62947 0 6.59095 0C5.55243 0 4.70745 0.844898 4.70745 1.8835V7.43013C4.37779 7.00914 3.98142 6.64224 3.52134 6.45313C3.00794 6.24218 2.46767 6.26738 1.95871 6.52613C1.02265 7.00211 0.636738 8.14921 1.09841 9.08334L3.43814 13.8183C3.50427 13.9482 5.08984 17 7.96047 17H11.3089C13.9492 17 16.0971 14.8408 16.0971 12.1861L16.0945 8.71284H16.0922ZM11.309 15.7443H7.96055C5.89272 15.7443 4.60448 13.3386 4.55802 13.2501L2.22415 8.52708C2.06309 8.20119 2.19653 7.81394 2.52794 7.64543C2.7106 7.55251 2.86957 7.54305 3.04344 7.61429C3.73665 7.89849 4.41714 9.26809 4.68301 10.0641L4.88475 10.6718L5.9632 10.2901V1.8835C5.9632 1.53727 6.24481 1.25567 6.59104 1.25567C6.93727 1.25567 7.21887 1.53727 7.21887 1.8835V9.12453H7.23026H8.47454H8.48592V5.9435C8.48592 5.593 8.79967 5.27381 9.14423 5.27381C9.50101 5.27381 9.81392 5.56722 9.81392 5.90164V7.15731V9.33381H11.0696V7.15731C11.0696 6.81108 11.3512 6.52948 11.6974 6.52948C12.0437 6.52948 12.3253 6.81108 12.3253 7.15731V8.53855V9.91979H13.5809V8.53855C13.5809 8.19232 13.8625 7.91071 14.2088 7.91071C14.555 7.91071 14.8366 8.19232 14.8366 8.53855V9.43652H14.8395L14.8416 12.1866C14.8415 14.1484 13.2568 15.7443 11.309 15.7443Z" fill="#DE2128"/>
</svg>
