<svg width="25" height="14" viewBox="0 0 25 14" fill="none" xmlns="http://www.w3.org/2000/svg">
<g filter="url(#filter0_d_1659_20476)">
<path d="M9.83333 15C9.59722 15 9.39917 14.92 9.23917 14.76C9.07917 14.6 8.99944 14.4022 9 14.1667V13.3333H5.66667C5.20833 13.3333 4.81583 13.17 4.48917 12.8433C4.1625 12.5167 3.99945 12.1244 4 11.6667V1.66667C4 1.20833 4.16333 0.815834 4.49 0.489168C4.81667 0.162501 5.20889 -0.000554141 5.66667 1.41483e-06H19C19.4583 1.41483e-06 19.8508 0.163335 20.1775 0.490001C20.5042 0.816668 20.6672 1.20889 20.6667 1.66667V5.83333H13L13.9583 4.875C14.1111 4.72222 14.1875 4.52778 14.1875 4.29167C14.1875 4.05556 14.1111 3.86111 13.9583 3.70833C13.8056 3.55556 13.6111 3.47917 13.375 3.47917C13.1389 3.47917 12.9444 3.55556 12.7917 3.70833L10.4167 6.08333C10.3333 6.16667 10.2744 6.25694 10.24 6.35417C10.2056 6.45139 10.1881 6.55555 10.1875 6.66667C10.1875 6.77778 10.205 6.88194 10.24 6.97917C10.275 7.07639 10.3339 7.16667 10.4167 7.25L12.7917 9.625C12.9444 9.77778 13.1389 9.85417 13.375 9.85417C13.6111 9.85417 13.8056 9.77778 13.9583 9.625C14.1111 9.47222 14.1875 9.27778 14.1875 9.04167C14.1875 8.80556 14.1111 8.61111 13.9583 8.45833L13 7.5H20.6667V11.6667C20.6667 12.125 20.5033 12.5175 20.1767 12.8442C19.85 13.1708 19.4578 13.3339 19 13.3333H15.6667V14.1667C15.6667 14.4028 15.5867 14.6008 15.4267 14.7608C15.2667 14.9208 15.0689 15.0006 14.8333 15H9.83333Z" fill="#DE2128"/>
</g>
<defs>
<filter id="filter0_d_1659_20476" x="0" y="0" width="24.6667" height="14" filterUnits="userSpaceOnUse" color-interpolation-filters="sRGB">
<feFlood flood-opacity="0" result="BackgroundImageFix"/>
<feColorMatrix in="SourceAlpha" type="matrix" values="0 0 0 0 0 0 0 0 0 0 0 0 0 0 0 0 0 0 127 0" result="hardAlpha"/>
<feOffset dy="4"/>
<feGaussianBlur stdDeviation="2"/>
<feComposite in2="hardAlpha" operator="out"/>
<feColorMatrix type="matrix" values="0 0 0 0 0 0 0 0 0 0 0 0 0 0 0 0 0 0 0.25 0"/>
<feBlend mode="normal" in2="BackgroundImageFix" result="effect1_dropShadow_1659_20476"/>
<feBlend mode="normal" in="SourceGraphic" in2="effect1_dropShadow_1659_20476" result="shape"/>
</filter>
</defs>
</svg>
