<svg width="22" height="24" viewBox="0 0 22 24" fill="none" xmlns="http://www.w3.org/2000/svg">
<path d="M20.5999 11.9969V3.99688C20.5999 3.14818 20.2628 2.33425 19.6626 1.73413C19.0625 1.13402 18.2486 0.796875 17.3999 0.796875H4.5999C3.75121 0.796875 2.93728 1.13402 2.33716 1.73413C1.73704 2.33425 1.3999 3.14818 1.3999 3.99688V11.9969M20.5999 11.9969H1.3999M20.5999 11.9969V15.1969C20.5999 16.0456 20.2628 16.8595 19.6626 17.4596C19.0625 18.0597 18.2486 18.3969 17.3999 18.3969H12.5999V21.5969C12.5999 22.0212 12.4313 22.4282 12.1313 22.7282C11.8312 23.0283 11.4242 23.1969 10.9999 23.1969C10.5756 23.1969 10.1686 23.0283 9.86853 22.7282C9.56847 22.4282 9.3999 22.0212 9.3999 21.5969V18.3969H4.5999C3.75121 18.3969 2.93728 18.0597 2.33716 17.4596C1.73704 16.8595 1.3999 16.0456 1.3999 15.1969V11.9969M7.7999 0.796875V7.99688M10.9999 0.796875V4.79688" stroke="#DE2128"/>
<path d="M20.5002 12H1.50016C1.33349 12.3333 1.10016 13.5 1.50016 15.5C1.90016 17.5 3.66682 18.3333 4.50016 18.5H9.00016C9.16682 18.5 9.50016 19.1 9.50016 21.5C10.3002 24.3 11.8335 23 12.5002 22V18.5H17.0002C19.4002 18.5 20.3335 16.8333 20.5002 16V12Z" fill="#DE2128"/>
</svg>
